<svg width="130" height="44" viewBox="0 0 130 44" fill="none" xmlns="http://www.w3.org/2000/svg">
<g clip-path="url(#clip0)">
<path d="M2.12018 16.4807C0.706492 14.9514 0 12.5697 0 9.33544C0 3.11211 2.93164 0.000976562 8.79563 0.000976562C9.67318 0.000976562 10.5688 0.0928213 11.482 0.27616C12.3945 0.4595 13.1056 0.700198 13.6153 0.997201C14.0715 1.25936 14.2998 1.53913 14.2998 1.83648C14.2998 2.0814 14.2034 2.40022 14.0104 2.79364C13.8171 3.18671 13.5845 3.5365 13.3124 3.8423C13.0399 4.1481 12.7989 4.30118 12.5882 4.30118C12.5356 4.30118 12.3249 4.22235 11.9563 4.06505C11.5877 3.90811 11.1399 3.76805 10.6133 3.64594C10.0867 3.52383 9.45441 3.46225 8.71717 3.46225C7.17201 3.46225 6.02656 3.95209 5.28049 4.93072C4.53406 5.91006 4.1612 7.38697 4.1612 9.36218C4.1612 13.3478 5.66254 15.3406 8.66451 15.3406C9.45441 15.3406 10.1393 15.2618 10.7186 15.1045C11.2982 14.9472 11.8598 14.7462 12.4041 14.5013C12.6847 14.362 12.878 14.2916 12.9833 14.2916C13.2466 14.2916 13.4969 14.4404 13.734 14.7374C13.9712 15.0351 14.1641 15.3712 14.3136 15.747C14.4624 16.1229 14.5373 16.3984 14.5373 16.5729C14.5373 17.0276 14.2299 17.4298 13.6156 17.7792C13.036 18.1114 12.2726 18.3606 11.3244 18.5267C10.3765 18.6924 9.48975 18.7755 8.66451 18.7755C5.71485 18.7751 3.53317 18.0108 2.12018 16.4807Z" fill="#2AB9CF"/>
<path d="M18.4868 16.3491C17.0293 14.7321 16.3009 12.4117 16.3009 9.38749C16.3009 6.36327 17.0293 4.04285 18.4868 2.42588C19.944 0.808906 22.0331 0.000244141 24.7544 0.000244141C27.4754 0.000244141 29.5606 0.808906 31.0089 2.42588C32.4573 4.04285 33.1814 6.36327 33.1814 9.38749C33.1814 12.4117 32.4573 14.7321 31.0089 16.3491C29.5606 17.9661 27.4754 18.7744 24.7544 18.7744C22.0327 18.7744 19.9436 17.9661 18.4868 16.3491ZM27.9409 13.8186C28.6608 12.8051 29.0206 11.3279 29.0206 9.38749C29.0206 7.44677 28.6604 5.97442 27.9409 4.96905C27.221 3.96403 26.1589 3.46117 24.7544 3.46117C23.3496 3.46117 22.2829 3.96403 21.5545 4.96905C20.8258 5.97407 20.4617 7.44677 20.4617 9.38749C20.4617 11.3279 20.8261 12.8051 21.5545 13.8186C22.2829 14.8328 23.3496 15.3395 24.7544 15.3395C26.1589 15.3395 27.221 14.8328 27.9409 13.8186Z" fill="#2AB9CF"/>
<path d="M37.7371 16.3491C36.2796 14.7321 35.5511 12.4117 35.5511 9.38749C35.5511 6.36327 36.2796 4.04285 37.7371 2.42588C39.1942 0.808906 41.2833 0.000244141 44.0047 0.000244141C46.7257 0.000244141 48.8109 0.808906 50.2592 2.42588C51.7075 4.04285 52.4317 6.36327 52.4317 9.38749C52.4317 12.4117 51.7075 14.7321 50.2592 16.3491C48.8109 17.9661 46.7257 18.7744 44.0047 18.7744C41.2833 18.7744 39.1942 17.9661 37.7371 16.3491ZM47.1911 13.8186C47.911 12.8051 48.2708 11.3279 48.2708 9.38749C48.2708 7.44677 47.9107 5.97442 47.1911 4.96905C46.4712 3.96403 45.4092 3.46117 44.0047 3.46117C42.5998 3.46117 41.5332 3.96403 40.8048 4.96905C40.076 5.97407 39.712 7.44677 39.712 9.38749C39.712 11.3279 40.0764 12.8051 40.8048 13.8186C41.5332 14.8328 42.5998 15.3395 44.0047 15.3395C45.4092 15.3395 46.4712 14.8328 47.1911 13.8186Z" fill="#2AB9CF"/>
<path d="M55.4337 17.7781V1.25862C55.4337 0.891588 55.5167 0.625201 55.6839 0.459105C55.8507 0.293009 56.1182 0.209961 56.4872 0.209961H62.0172C63.6673 0.209961 65.1245 0.607959 66.3887 1.40325C67.6529 2.19889 68.2848 3.71487 68.2848 5.95259C68.2848 7.49109 67.9162 8.68438 67.1786 9.53175C66.4414 10.3798 65.6158 10.9524 64.7032 11.2494C63.7903 11.5467 62.9824 11.6952 62.2805 11.6952H59.4892V17.7785C59.4892 18.3384 58.9626 18.6178 57.909 18.6178H57.0138C55.9603 18.6174 55.4337 18.338 55.4337 17.7781ZM61.8327 8.2336C62.4646 8.2336 63.0047 8.0675 63.4525 7.73566C63.9002 7.40382 64.124 6.80911 64.124 5.95259C64.124 5.09607 63.9002 4.49714 63.4525 4.1565C63.0047 3.81586 62.465 3.64555 61.8327 3.64555H59.4888V8.23395H61.8327V8.2336Z" fill="#2AB9CF"/>
<path d="M70.8785 18.3155C70.7114 18.1494 70.6283 17.883 70.6283 17.516V1.25862C70.6283 0.891588 70.7114 0.625201 70.8785 0.459105C71.045 0.293009 71.3129 0.209961 71.6815 0.209961H77.3172C80.0382 0.209961 82.1234 1.00103 83.5717 2.58281C85.02 4.1653 85.7442 6.43328 85.7442 9.38747C85.7442 12.342 85.02 14.61 83.5717 16.1918C82.1234 17.7739 80.0382 18.5646 77.3172 18.5646H71.6815C71.3129 18.5646 71.0454 18.4819 70.8785 18.3155ZM77.3176 15.1298C78.7221 15.1298 79.7841 14.6403 80.504 13.6613C81.2236 12.6823 81.5837 11.2578 81.5837 9.38712C81.5837 7.51643 81.2236 6.0923 80.504 5.11296C79.7837 4.13433 78.7221 3.64484 77.3176 3.64484H74.7104V15.1298H77.3176Z" fill="#2AB9CF"/>
<path d="M89.1809 18.3155C89.0138 18.1494 88.9307 17.883 88.9307 17.516V1.25862C88.9307 0.891588 89.0138 0.625201 89.1809 0.459105C89.3474 0.293009 89.6153 0.209961 89.9839 0.209961H99.2273C99.508 0.209961 99.7101 0.314827 99.8331 0.52491C99.9558 0.734642 100.018 1.06683 100.018 1.52114V2.33402C100.018 2.78903 99.9558 3.12087 99.8331 3.3306C99.7101 3.54033 99.5083 3.64555 99.2273 3.64555H92.9862V7.44675H98.5163C98.7969 7.44675 98.999 7.55162 99.122 7.7617C99.2447 7.97144 99.3062 8.30363 99.3062 8.75793V9.57117C99.3062 10.0258 99.2447 10.3577 99.122 10.5674C98.999 10.7775 98.7969 10.8823 98.5163 10.8823H92.9862V15.1301H99.2539C99.5345 15.1301 99.7366 15.235 99.8596 15.4447C99.9823 15.6548 100.044 15.9866 100.044 16.4413V17.2542C100.044 17.7088 99.9819 18.0407 99.8596 18.2504C99.7366 18.4605 99.5345 18.5653 99.2539 18.5653H89.9839C89.6153 18.5646 89.3474 18.4819 89.1809 18.3155Z" fill="#2AB9CF"/>
<path d="M107.233 18.0664L101.545 1.20659C101.474 0.962018 101.439 0.804368 101.439 0.73434C101.439 0.350067 101.975 0.157227 103.046 0.157227H103.915C104.792 0.157227 105.31 0.410945 105.468 0.917679L109.024 12.2717L109.313 13.1891H109.419L109.708 12.2717L113.368 0.917679C113.544 0.410945 114.062 0.157227 114.922 0.157227H115.739C116.792 0.157227 117.319 0.350067 117.319 0.73434C117.319 0.857152 117.293 1.0141 117.24 1.20659L111.552 18.0664C111.429 18.4334 110.937 18.6171 110.077 18.6171H108.708C107.847 18.6175 107.356 18.4334 107.233 18.0664Z" fill="#2AB9CF"/>
<path d="M121.058 18.4075C120.128 18.1629 119.399 17.8483 118.872 17.4633C118.381 17.1318 118.135 16.7993 118.135 16.4671C118.135 16.2049 118.231 15.89 118.425 15.5229C118.618 15.1559 118.846 14.8325 119.11 14.5528C119.373 14.2734 119.592 14.1333 119.768 14.1333C119.874 14.1333 120.119 14.2382 120.506 14.4483C121.067 14.728 121.576 14.9462 122.033 15.1035C122.49 15.2608 123.025 15.3396 123.639 15.3396C124.324 15.3396 124.907 15.2045 125.391 14.9332C125.873 14.6622 126.115 14.1861 126.115 13.5041C126.115 12.9446 125.891 12.5033 125.443 12.1799C124.995 11.8565 124.272 11.4941 123.271 11.0915L122.059 10.5672C120.953 10.0428 120.084 9.39182 119.452 8.61377C118.82 7.83608 118.504 6.73006 118.504 5.29678C118.504 4.10806 118.798 3.11641 119.386 2.32042C119.974 1.52513 120.742 0.939921 121.691 0.563742C122.638 0.188266 123.656 0 124.746 0C125.641 0 126.453 0.091846 127.181 0.275185C127.91 0.458524 128.485 0.699223 128.906 0.996225C129.292 1.27598 129.486 1.5561 129.486 1.8355C129.486 2.08042 129.406 2.38587 129.248 2.7529C129.09 3.12028 128.897 3.43911 128.669 3.71007C128.441 3.98138 128.23 4.11651 128.037 4.11651C127.949 4.11651 127.804 4.07323 127.603 3.98525C127.4 3.89833 127.229 3.8283 127.089 3.77552C126.457 3.56579 125.799 3.46057 125.114 3.46057C124.201 3.46057 123.564 3.60942 123.205 3.90678C122.845 4.20413 122.665 4.54477 122.665 4.92904C122.665 5.38405 122.788 5.75952 123.034 6.05653C123.28 6.35423 123.578 6.59387 123.929 6.77792C124.28 6.96126 124.799 7.2016 125.483 7.49896C126.484 7.91842 127.3 8.31607 127.932 8.69225C128.564 9.06843 129.113 9.60965 129.578 10.3177C130.043 11.0257 130.276 11.9304 130.276 13.0315C130.276 14.3779 129.99 15.4793 129.42 16.3355C128.849 17.1924 128.117 17.8128 127.221 18.1974C126.326 18.5816 125.36 18.7741 124.325 18.7741C123.077 18.7745 121.989 18.652 121.058 18.4075Z" fill="#2AB9CF"/>
<path d="M0.98782 32.585C0.637932 32.4896 0.373924 32.3735 0.195446 32.237C0.0650329 32.1416 0 32.0557 0 31.9804C0 31.8988 0.0463002 31.7858 0.138897 31.6422C0.231494 31.499 0.305364 31.4272 0.360498 31.4272C0.387358 31.4272 0.459453 31.4617 0.576436 31.5296C0.789196 31.6461 1.0168 31.745 1.26066 31.827C1.50417 31.909 1.79433 31.9502 2.13044 31.9502C2.52804 31.9502 2.85248 31.8393 3.10306 31.6173C3.35293 31.3952 3.47839 31.1031 3.47839 30.7414C3.47839 30.4884 3.40947 30.2786 3.2727 30.1111C3.13521 29.9436 2.96911 29.8106 2.77331 29.7114C2.57752 29.6121 2.29478 29.4911 1.92474 29.3475C1.52644 29.1906 1.21083 29.047 0.977574 28.9171C0.744315 28.7876 0.545332 28.5945 0.38099 28.3383C0.216296 28.0817 0.134302 27.7453 0.134302 27.329C0.134302 26.9599 0.228311 26.6323 0.417392 26.3451C0.605766 26.0583 0.873316 25.8349 1.22002 25.674C1.56602 25.5136 1.96574 25.4333 2.41883 25.4333C2.65209 25.4333 2.91291 25.4657 3.20095 25.5305C3.48934 25.5956 3.712 25.6825 3.86998 25.7916C4.00746 25.8736 4.07603 25.9623 4.07603 26.058C4.07603 26.1333 4.03291 26.2424 3.94738 26.3863C3.86185 26.5295 3.7947 26.6013 3.74699 26.6013C3.71236 26.6013 3.66288 26.5841 3.59749 26.5499C3.53246 26.5154 3.4897 26.4919 3.4692 26.4781C3.12602 26.3004 2.76943 26.2117 2.39904 26.2117C2.00109 26.2117 1.68017 26.3142 1.43666 26.519C1.19316 26.7238 1.07123 27.0077 1.07123 27.3695C1.07123 27.6017 1.13131 27.7893 1.25147 27.9332C1.37164 28.0765 1.50912 28.1841 1.66321 28.2559C1.81731 28.3277 2.08661 28.4389 2.47113 28.5888C2.88251 28.7461 3.21862 28.8981 3.4798 29.0449C3.74027 29.192 3.96151 29.4035 4.14352 29.6804C4.32554 29.957 4.41602 30.3103 4.41602 30.741C4.41602 31.3554 4.20997 31.8407 3.79859 32.1958C3.38721 32.5512 2.83127 32.7289 2.13149 32.7289C1.7187 32.7286 1.33771 32.6807 0.98782 32.585Z" fill="#363A59"/>
<path d="M6.16436 31.7911C5.62221 31.1661 5.35114 30.2558 5.35114 29.0604C5.35114 27.865 5.62044 26.9613 6.15871 26.35C6.69732 25.7388 7.48475 25.4333 8.52098 25.4333C9.55651 25.4333 10.3457 25.7388 10.8879 26.35C11.4296 26.9613 11.7007 27.865 11.7007 29.0604C11.7007 30.2554 11.4296 31.1658 10.8879 31.7911C10.3457 32.4157 9.55616 32.7286 8.52098 32.7286C7.49181 32.7286 6.70616 32.4157 6.16436 31.7911ZM10.1877 31.2119C10.5715 30.7203 10.7642 30.0028 10.7642 29.0604C10.7642 28.1247 10.5715 27.4156 10.1877 26.9342C9.8032 26.4524 9.24762 26.2117 8.52063 26.2117C7.79293 26.2117 7.23947 26.4524 6.85848 26.9342C6.47784 27.4156 6.2877 28.1247 6.2877 29.0604C6.2877 30.0031 6.47784 30.7203 6.85848 31.2119C7.23947 31.7035 7.79328 31.9498 8.52063 31.9498C9.24762 31.9498 9.80355 31.7038 10.1877 31.2119Z" fill="#363A59"/>
<path d="M13.2852 32.4622V25.8018C13.2852 25.6924 13.3092 25.6143 13.3572 25.5661C13.4053 25.5182 13.4838 25.4946 13.5937 25.4946H16.8356C16.9113 25.4946 16.9643 25.5182 16.995 25.5661C17.0258 25.6143 17.0413 25.6924 17.0413 25.8018V25.9658C17.0413 26.0753 17.0258 26.1537 16.995 26.2016C16.9643 26.2495 16.9113 26.2734 16.8356 26.2734H14.191V28.6096H16.6504C16.7257 28.6096 16.7791 28.6336 16.8098 28.6811C16.8409 28.7293 16.8561 28.8074 16.8561 28.9168V29.0808C16.8561 29.1903 16.8409 29.2687 16.8098 29.3166C16.7791 29.3645 16.7257 29.3884 16.6504 29.3884H14.191V32.4622C14.191 32.6125 14.0535 32.6878 13.7796 32.6878H13.6972C13.4226 32.6874 13.2852 32.6125 13.2852 32.4622Z" fill="#363A59"/>
<path d="M19.8507 32.4622V26.2734H17.8747C17.8061 26.2734 17.7545 26.2495 17.7202 26.2016C17.6856 26.1537 17.6686 26.0753 17.6686 25.9658V25.8018C17.6686 25.6924 17.6856 25.6143 17.7202 25.5661C17.7545 25.5182 17.8058 25.4946 17.8747 25.4946H22.701C22.7763 25.4946 22.8297 25.5182 22.8604 25.5661C22.8915 25.6143 22.9067 25.6924 22.9067 25.8018V25.9658C22.9067 26.0753 22.8915 26.1537 22.8604 26.2016C22.8297 26.2495 22.7763 26.2734 22.701 26.2734H20.7561V32.4622C20.7561 32.6125 20.6187 32.6878 20.3444 32.6878H20.2624C19.9878 32.6874 19.8507 32.6125 19.8507 32.4622Z" fill="#363A59"/>
<path d="M25.058 32.5237L23.2983 25.7915C23.2778 25.7099 23.2676 25.662 23.2676 25.6483C23.2676 25.5322 23.4149 25.4741 23.7101 25.4741H23.8129C24.06 25.4741 24.1971 25.5286 24.2243 25.6381L25.5316 30.6794C25.5655 30.8089 25.6033 30.9919 25.6447 31.2276C25.6853 31.4634 25.7097 31.5982 25.7164 31.6323L25.9635 30.6484L27.2086 25.6483C27.2355 25.5322 27.3694 25.4741 27.6097 25.4741H27.7748C28.0148 25.4741 28.1484 25.5322 28.1759 25.6483L29.4521 30.6892C29.4928 30.8398 29.5309 31.0193 29.5652 31.2273C29.5991 31.4356 29.6196 31.5707 29.6267 31.632L29.8738 30.6583L31.1189 25.6374C31.1461 25.5279 31.2832 25.4734 31.5302 25.4734H31.5921C31.8872 25.4734 32.0349 25.5315 32.0349 25.6476L32.0038 25.7908L30.2237 32.523C30.1961 32.6324 30.0586 32.687 29.8119 32.687H29.3899C29.1432 32.687 29.0058 32.6324 28.9785 32.523L27.8568 28.3523L27.6408 27.0203L27.4249 28.3523L26.3031 32.523C26.2756 32.6324 26.1381 32.687 25.8914 32.687H25.4694C25.2227 32.6873 25.0852 32.6328 25.058 32.5237Z" fill="#363A59"/>
<path d="M32.0042 32.5133C32.0042 32.4791 32.0145 32.4313 32.035 32.3697L34.4739 25.6379C34.5149 25.5284 34.6521 25.4739 34.8853 25.4739H35.184C35.4306 25.4739 35.5681 25.5284 35.5957 25.6379L38.0343 32.3799C38.0552 32.4277 38.0654 32.4721 38.0654 32.5133C38.0654 32.6294 37.9177 32.6874 37.6229 32.6874H37.5406C37.3003 32.6874 37.1635 32.6329 37.1288 32.5235L36.5217 30.8431H33.4964L32.9101 32.5235C32.8754 32.6329 32.7383 32.6874 32.4983 32.6874H32.4467C32.1516 32.6874 32.0042 32.6294 32.0042 32.5133ZM36.2439 30.0644L35.1635 27.0106C35.1288 26.9015 35.0875 26.7034 35.0398 26.4166H35.0189C34.9638 26.6897 34.9125 26.8882 34.8645 27.0106L33.7837 30.0644H36.2439Z" fill="#363A59"/>
<path d="M39.1868 32.4622V25.8018C39.1868 25.6924 39.2105 25.6143 39.2589 25.5661C39.3066 25.5182 39.3858 25.4946 39.4957 25.4946H41.2246C42.0477 25.4946 42.6669 25.6396 43.0818 25.9299C43.4971 26.2202 43.7046 26.6795 43.7046 27.308C43.7046 27.7316 43.6017 28.0885 43.396 28.3788C43.1904 28.6691 42.8984 28.8894 42.5213 29.0397V29.0805C42.7199 29.1487 42.8864 29.2821 43.0204 29.4802C43.1543 29.6784 43.2964 29.9718 43.4473 30.3614L44.2499 32.3799C44.2704 32.4415 44.2807 32.4893 44.2807 32.5234C44.2807 32.6329 44.1368 32.6874 43.8484 32.6874H43.7456C43.6427 32.6874 43.5533 32.672 43.4777 32.641C43.4024 32.6104 43.3543 32.5713 43.3338 32.5234L42.5517 30.5152C42.4008 30.126 42.2121 29.861 41.9859 29.7209C41.7593 29.5812 41.4363 29.5108 41.0182 29.5108H40.0922V32.4619C40.0922 32.6121 39.9548 32.6874 39.6805 32.6874H39.5985C39.3239 32.6874 39.1868 32.6125 39.1868 32.4622ZM41.4508 28.7321C41.6908 28.7321 41.9124 28.6744 42.1145 28.5583C42.3167 28.4421 42.4761 28.2884 42.5931 28.0969C42.7097 27.9058 42.7684 27.6972 42.7684 27.4719C42.7684 27.0687 42.6447 26.7685 42.3976 26.5704C42.1506 26.3726 41.8109 26.2734 41.3787 26.2734H40.0922V28.7321H41.4508Z" fill="#363A59"/>
<path d="M45.5364 32.5952C45.488 32.5474 45.464 32.4693 45.464 32.3598V25.8018C45.464 25.6924 45.488 25.6143 45.5364 25.5661C45.5841 25.5182 45.6629 25.4946 45.7728 25.4946H49.3643C49.4399 25.4946 49.493 25.5182 49.5241 25.5661C49.5545 25.6143 49.5704 25.6924 49.5704 25.8018V25.9658C49.5704 26.0753 49.5545 26.1537 49.5241 26.2016C49.493 26.2495 49.4399 26.2734 49.3643 26.2734H46.3694V28.6096H49.0554C49.1311 28.6096 49.1844 28.6336 49.2152 28.6811C49.2459 28.7293 49.2615 28.8074 49.2615 28.9168V29.0808C49.2615 29.1903 49.2459 29.2687 49.2152 29.3166C49.1844 29.3645 49.1311 29.3884 49.0554 29.3884H46.3694V31.8883H49.3746C49.4502 31.8883 49.5032 31.9122 49.534 31.9601C49.5647 32.0079 49.5806 32.0864 49.5806 32.1955V32.3598C49.5806 32.4693 49.5647 32.5474 49.534 32.5952C49.5032 32.6434 49.4502 32.667 49.3746 32.667H45.7728C45.6629 32.667 45.5841 32.6434 45.5364 32.5952Z" fill="#363A59"/>
<path d="M53.6244 32.5952C53.5764 32.5474 53.5527 32.4693 53.5527 32.3598V25.6994C53.5527 25.5492 53.6898 25.4739 53.9641 25.4739H54.0464C54.3207 25.4739 54.4582 25.5492 54.4582 25.6994V31.8883H57.288C57.3637 31.8883 57.4167 31.9122 57.4474 31.9601C57.4782 32.0079 57.4941 32.0864 57.4941 32.1955V32.3598C57.4941 32.4693 57.4782 32.5474 57.4474 32.5952C57.4167 32.6435 57.3637 32.667 57.288 32.667H53.8612C53.7513 32.667 53.6725 32.6435 53.6244 32.5952Z" fill="#363A59"/>
<path d="M58.6056 32.5952C58.5572 32.5474 58.5332 32.4693 58.5332 32.3598V25.6994C58.5332 25.5492 58.6706 25.4739 58.9452 25.4739H59.0272C59.3011 25.4739 59.4386 25.5492 59.4386 25.6994V31.8883H62.2688C62.3441 31.8883 62.3975 31.9122 62.4282 31.9601C62.4593 32.0079 62.4745 32.0864 62.4745 32.1955V32.3598C62.4745 32.4693 62.4593 32.5474 62.4282 32.5952C62.3975 32.6435 62.3441 32.667 62.2688 32.667H58.8421C58.7321 32.667 58.653 32.6435 58.6056 32.5952Z" fill="#363A59"/>
<path d="M63.5139 32.4622V25.6994C63.5139 25.5492 63.6511 25.4739 63.9253 25.4739H64.0077C64.2819 25.4739 64.4194 25.5492 64.4194 25.6994V32.4622C64.4194 32.6125 64.2819 32.6878 64.0077 32.6878H63.9253C63.6511 32.6874 63.5139 32.6125 63.5139 32.4622Z" fill="#363A59"/>
<path d="M67.0075 32.1086C66.524 31.6954 66.282 31.1166 66.282 30.3716V25.6994C66.282 25.5492 66.4194 25.4739 66.6937 25.4739H66.776C67.0499 25.4739 67.1874 25.5492 67.1874 25.6994V30.4026C67.1874 30.7031 67.2694 30.9709 67.4345 31.2067C67.5992 31.4424 67.825 31.6251 68.1137 31.7549C68.4014 31.8848 68.7273 31.9499 69.0913 31.9499C69.4553 31.9499 69.7808 31.8834 70.0689 31.75C70.3573 31.617 70.5838 31.4326 70.7481 31.1968C70.9132 30.9614 70.9952 30.6964 70.9952 30.4029V25.6994C70.9952 25.5492 71.1327 25.4739 71.4069 25.4739H71.4893C71.7632 25.4739 71.9007 25.5492 71.9007 25.6994V30.3716C71.9007 31.1162 71.6571 31.6954 71.1701 32.1086C70.6831 32.5221 69.99 32.7286 69.0913 32.7286C68.1858 32.7286 67.4914 32.5221 67.0075 32.1086Z" fill="#363A59"/>
<path d="M73.753 32.4622V25.8018C73.753 25.6924 73.777 25.6143 73.8254 25.5661C73.8731 25.5182 73.9519 25.4946 74.0619 25.4946H75.7908C76.6143 25.4946 77.2335 25.6396 77.6484 25.9299C78.0633 26.2202 78.2711 26.6795 78.2711 27.308C78.2711 27.7316 78.1683 28.0885 77.9626 28.3788C77.7569 28.6691 77.4649 28.8894 77.0875 29.0397V29.0805C77.2865 29.1487 77.4529 29.2821 77.5869 29.4802C77.7205 29.6784 77.8625 29.9718 78.0135 30.3614L78.8161 32.3799C78.8369 32.4415 78.8472 32.4893 78.8472 32.5234C78.8472 32.6329 78.703 32.6874 78.4149 32.6874H78.3121C78.2089 32.6874 78.1195 32.672 78.0442 32.641C77.9686 32.6104 77.9205 32.5713 77.9 32.5234L77.1179 30.5152C76.967 30.126 76.7782 29.861 76.5521 29.7209C76.3255 29.5812 76.0028 29.5108 75.5847 29.5108H74.6584V32.4619C74.6584 32.6121 74.5209 32.6874 74.247 32.6874H74.1651C73.8904 32.6874 73.753 32.6125 73.753 32.4622ZM76.017 28.7321C76.2573 28.7321 76.4786 28.6744 76.6811 28.5583C76.8832 28.4421 77.0426 28.2884 77.1596 28.0969C77.2762 27.9058 77.3345 27.6972 77.3345 27.4719C77.3345 27.0687 77.2108 26.7685 76.9642 26.5704C76.7171 26.3726 76.3775 26.2734 75.9452 26.2734H74.6584V28.7321H76.017Z" fill="#363A59"/>
<path d="M80.1026 32.5952C80.0545 32.5474 80.0305 32.4693 80.0305 32.3598V25.8018C80.0305 25.6924 80.0545 25.6143 80.1026 25.5661C80.1506 25.5182 80.2291 25.4946 80.339 25.4946H83.9305C84.0061 25.4946 84.0595 25.5182 84.0902 25.5661C84.121 25.6143 84.1365 25.6924 84.1365 25.8018V25.9658C84.1365 26.0753 84.121 26.1537 84.0902 26.2016C84.0595 26.2495 84.0061 26.2734 83.9305 26.2734H80.936V28.6096H83.6219C83.6972 28.6096 83.7506 28.6336 83.7813 28.6811C83.8124 28.7293 83.8276 28.8074 83.8276 28.9168V29.0808C83.8276 29.1903 83.8124 29.2687 83.7813 29.3166C83.7506 29.3645 83.6972 29.3884 83.6219 29.3884H80.936V31.8883H83.9407C84.0164 31.8883 84.0694 31.9122 84.1001 31.9601C84.1312 32.0079 84.1468 32.0864 84.1468 32.1955V32.3598C84.1468 32.4693 84.1312 32.5474 84.1001 32.5952C84.0694 32.6434 84.0164 32.667 83.9407 32.667H80.339C80.2291 32.667 80.1503 32.6434 80.1026 32.5952Z" fill="#363A59"/>
<path d="M0.494019 43.7332V37.0728C0.494019 36.9634 0.517701 36.8853 0.56612 36.8371C0.613832 36.7892 0.692639 36.7656 0.802907 36.7656H2.89163C3.49528 36.7656 4.02895 36.9088 4.49158 37.196C4.95492 37.4828 5.18641 38.0092 5.18641 38.7739C5.18641 39.3408 5.05281 39.7814 4.78492 40.0956C4.51738 40.4099 4.21874 40.62 3.8897 40.7259C3.56067 40.8318 3.26238 40.8846 2.99449 40.8846H1.39913V43.7332C1.39913 43.8835 1.26201 43.9588 0.987751 43.9588H0.905759C0.630796 43.9588 0.494019 43.8835 0.494019 43.7332ZM3.00473 40.1062C3.29949 40.1062 3.58116 40.0073 3.84871 39.8088C4.11625 39.6111 4.25019 39.2659 4.25019 38.7743C4.25019 38.3164 4.11271 37.9973 3.83846 37.816C3.5642 37.6348 3.23835 37.5447 2.86054 37.5447H1.39913V40.1062H3.00473Z" fill="#363A59"/>
<path d="M6.55484 43.8662C6.50677 43.8184 6.48309 43.7403 6.48309 43.6308V37.0728C6.48309 36.9634 6.50677 36.8853 6.55484 36.8371C6.6029 36.7892 6.68171 36.7656 6.79163 36.7656H10.3831C10.4584 36.7656 10.5117 36.7892 10.5425 36.8371C10.5736 36.8853 10.5888 36.9634 10.5888 37.0728V37.2368C10.5888 37.3463 10.5736 37.4247 10.5425 37.4726C10.5117 37.5204 10.4584 37.5444 10.3831 37.5444H7.38855V39.8806H10.0746C10.1498 39.8806 10.2028 39.9046 10.2339 39.9521C10.2647 40.0003 10.2803 40.0784 10.2803 40.1878V40.3518C10.2803 40.4613 10.2647 40.5397 10.2339 40.5876C10.2028 40.6355 10.1498 40.6594 10.0746 40.6594H7.38855V43.1593H10.3933C10.4686 43.1593 10.5216 43.1832 10.5527 43.2311C10.5838 43.2789 10.599 43.3574 10.599 43.4665V43.6308C10.599 43.7403 10.5838 43.8184 10.5527 43.8662C10.5216 43.9144 10.4686 43.938 10.3933 43.938H6.79163C6.68206 43.938 6.6029 43.9144 6.55484 43.8662Z" fill="#363A59"/>
<path d="M12.1018 43.7332V37.0728C12.1018 36.9634 12.1255 36.8853 12.1739 36.8371C12.2216 36.7892 12.3008 36.7656 12.4107 36.7656H14.1396C14.9628 36.7656 15.582 36.9106 15.9969 37.2009C16.4121 37.4912 16.6196 37.9505 16.6196 38.579C16.6196 39.0026 16.5168 39.3595 16.3111 39.6498C16.1054 39.9401 15.8135 40.1604 15.4363 40.3107V40.3515C15.635 40.4197 15.8014 40.5531 15.9354 40.7512C16.0693 40.9493 16.2114 41.2428 16.3623 41.6324L17.1649 43.6509C17.1854 43.7125 17.1957 43.7603 17.1957 43.7944C17.1957 43.9039 17.0518 43.9584 16.7635 43.9584H16.6606C16.5578 43.9584 16.4684 43.9429 16.3927 43.912C16.3174 43.8814 16.2694 43.8423 16.2489 43.7944L15.4667 41.7862C15.3158 41.397 15.1271 41.132 14.9009 40.9919C14.6744 40.8522 14.3513 40.7818 13.9332 40.7818H13.0073V43.7329C13.0073 43.8831 12.8698 43.9584 12.5955 43.9584H12.5135C12.2386 43.9588 12.1018 43.8835 12.1018 43.7332ZM14.3658 40.0034C14.6058 40.0034 14.8274 39.9457 15.0296 39.8296C15.2317 39.7135 15.3911 39.5597 15.5081 39.3683C15.6247 39.1772 15.6834 38.9685 15.6834 38.7433C15.6834 38.34 15.5597 38.0399 15.3127 37.8417C15.0656 37.644 14.726 37.5447 14.2937 37.5447H13.0073V40.0034H14.3658Z" fill="#363A59"/>
<path d="M19.974 43.7847C19.974 43.7506 19.9842 43.7027 20.0051 43.6412L22.4437 36.9093C22.4851 36.7999 22.6222 36.7454 22.8554 36.7454H23.1541C23.4008 36.7454 23.5379 36.7999 23.5655 36.9093L26.0041 43.6514C26.0249 43.6992 26.0352 43.7436 26.0352 43.7847C26.0352 43.9009 25.8875 43.9589 25.5927 43.9589H25.5107C25.2704 43.9589 25.1333 43.9044 25.099 43.7949L24.4918 42.1146H21.4661L20.8795 43.7949C20.8448 43.9044 20.7081 43.9589 20.4681 43.9589H20.4165C20.1217 43.9589 19.974 43.9009 19.974 43.7847ZM24.2137 41.3359L23.1332 38.2821C23.0986 38.173 23.0576 37.9749 23.0095 37.6881H22.9887C22.9339 37.9612 22.8823 38.1596 22.8346 38.2821L21.7535 41.3359H24.2137Z" fill="#363A59"/>
<path d="M29.6988 43.8662C29.6503 43.8184 29.6266 43.7403 29.6266 43.6308V36.9704C29.6266 36.8202 29.7638 36.7449 30.0384 36.7449H30.1204C30.3946 36.7449 30.5321 36.8202 30.5321 36.9704V43.1593H33.362C33.4376 43.1593 33.491 43.1832 33.5214 43.2311C33.5525 43.2789 33.568 43.3574 33.568 43.4665V43.6308C33.568 43.7403 33.5525 43.8184 33.5214 43.8662C33.491 43.9145 33.4376 43.938 33.362 43.938H29.9355C29.8256 43.938 29.7461 43.9145 29.6988 43.8662Z" fill="#363A59"/>
<path d="M34.0306 38.4717C33.9691 38.4481 33.938 38.4084 33.938 38.3538C33.938 38.313 33.9691 38.2306 34.0306 38.1078C34.2639 37.6437 34.3805 37.1208 34.3805 36.5405C34.3805 36.4377 34.4152 36.3575 34.4834 36.2994C34.5519 36.2414 34.6548 36.2122 34.7923 36.2122H34.8849C35.0149 36.2122 35.1164 36.2378 35.1885 36.2892C35.2606 36.3406 35.2966 36.4106 35.2966 36.4993C35.2966 36.8822 35.2347 37.2253 35.1114 37.5293C34.9881 37.8334 34.8421 38.0723 34.6742 38.2465C34.5056 38.4207 34.36 38.5076 34.237 38.5076C34.161 38.5076 34.0928 38.4956 34.0306 38.4717Z" fill="#363A59"/>
<path d="M36.8608 43.8662C36.8124 43.8184 36.7888 43.7403 36.7888 43.6308V37.0728C36.7888 36.9634 36.8124 36.8853 36.8608 36.8371C36.9086 36.7892 36.9877 36.7656 37.0977 36.7656H40.6891C40.7644 36.7656 40.8174 36.7892 40.8485 36.8371C40.8793 36.8853 40.8948 36.9634 40.8948 37.0728V37.2368C40.8948 37.3463 40.8793 37.4247 40.8485 37.4726C40.8174 37.5204 40.7644 37.5444 40.6891 37.5444H37.6942V39.8806H40.3802C40.4559 39.8806 40.5089 39.9046 40.54 39.9521C40.5704 40.0003 40.5863 40.0784 40.5863 40.1878V40.3518C40.5863 40.4613 40.5704 40.5397 40.54 40.5876C40.5089 40.6355 40.4559 40.6594 40.3802 40.6594H37.6942V43.1593H40.6994C40.7747 43.1593 40.8277 43.1832 40.8588 43.2311C40.8895 43.2789 40.9051 43.3574 40.9051 43.4665V43.6308C40.9051 43.7403 40.8895 43.8184 40.8588 43.8662C40.8277 43.9144 40.7747 43.938 40.6994 43.938H37.0977C36.9881 43.938 36.9086 43.9144 36.8608 43.8662Z" fill="#363A59"/>
<path d="M42.8037 43.1132C42.2654 42.5224 41.9961 41.6018 41.9961 40.3515C41.9961 37.9199 43.1076 36.7041 45.3303 36.7041C45.6664 36.7041 45.9908 36.74 46.3029 36.8118C46.615 36.8832 46.8638 36.9705 47.049 37.0729C47.2137 37.1686 47.296 37.2573 47.296 37.3393C47.296 37.435 47.2529 37.5582 47.1674 37.7084C47.0815 37.8587 47.0076 37.934 46.9461 37.934C46.9253 37.934 46.8376 37.8914 46.6839 37.8059C46.5291 37.7207 46.3404 37.6454 46.1177 37.5803C45.8947 37.5152 45.6392 37.4832 45.3508 37.4832C44.5206 37.4832 43.9102 37.7119 43.519 38.1694C43.1281 38.6272 42.9327 39.3581 42.9327 40.3621C42.9327 41.3456 43.126 42.0684 43.514 42.5291C43.9014 42.9904 44.5001 43.2209 45.3098 43.2209C45.6455 43.2209 45.9343 43.1818 46.1742 43.103C46.4142 43.0245 46.651 42.9236 46.8843 42.8007C46.9801 42.7392 47.0455 42.7085 47.0801 42.7085C47.1416 42.7085 47.2169 42.7838 47.3066 42.9341C47.3957 43.0844 47.4402 43.1938 47.4402 43.2621C47.4402 43.3645 47.33 43.4771 47.1108 43.6003C46.9048 43.7164 46.6443 43.8121 46.3284 43.8871C46.0127 43.962 45.6731 43.9997 45.3098 43.9997C44.1774 43.9997 43.3423 43.7041 42.8037 43.1132Z" fill="#363A59"/>
<path d="M49.179 43.0623C48.6369 42.4374 48.3658 41.527 48.3658 40.3316C48.3658 39.1362 48.6351 38.2325 49.1734 37.6213C49.712 37.01 50.4994 36.7046 51.5356 36.7046C52.5712 36.7046 53.3604 37.01 53.9025 37.6213C54.4443 38.2325 54.7154 39.1362 54.7154 40.3316C54.7154 41.5267 54.4443 42.437 53.9025 43.0623C53.3604 43.687 52.5708 43.9998 51.5356 43.9998C50.5065 43.9998 49.7208 43.687 49.179 43.0623ZM53.2024 42.4831C53.5862 41.9915 53.7788 41.274 53.7788 40.3316C53.7788 39.3959 53.5862 38.6868 53.2024 38.2054C52.8179 37.7237 52.2623 37.483 51.5353 37.483C50.8076 37.483 50.2541 37.7237 49.8731 38.2054C49.4925 38.6868 49.3024 39.3959 49.3024 40.3316C49.3024 41.2743 49.4925 41.9915 49.8731 42.4831C50.2541 42.9747 50.8079 43.221 51.5353 43.221C52.2623 43.221 52.8182 42.9751 53.2024 42.4831Z" fill="#363A59"/>
<path d="M56.2277 43.7332V36.9704C56.2277 36.8202 56.3648 36.7449 56.6394 36.7449H56.8554C56.9653 36.7449 57.0526 36.7586 57.1176 36.7857C57.183 36.8131 57.2395 36.8645 57.2872 36.9395L60.5186 41.7964C60.6352 41.967 60.7483 42.1722 60.8582 42.4111L60.8996 42.4013C60.8858 42.2443 60.8787 42.0121 60.8787 41.7045V36.9704C60.8787 36.8202 61.0162 36.7449 61.2901 36.7449H61.3626C61.6365 36.7449 61.774 36.8202 61.774 36.9704V43.7332C61.774 43.8835 61.6365 43.9588 61.3626 43.9588H61.1565C60.978 43.9588 60.8579 43.9109 60.7964 43.8152L57.4823 38.8355C57.3657 38.6652 57.2526 38.46 57.1427 38.2207L57.1021 38.2309C57.1155 38.3882 57.1226 38.6201 57.1226 38.9277V43.7332C57.1226 43.8835 56.9851 43.9588 56.7108 43.9588H56.6391C56.3648 43.9588 56.2277 43.8835 56.2277 43.7332Z" fill="#363A59"/>
<path d="M64.0999 43.0623C63.5581 42.4374 63.287 41.527 63.287 40.3316C63.287 39.1362 63.5563 38.2325 64.0949 37.6213C64.6332 37.01 65.4206 36.7046 66.4565 36.7046C67.4927 36.7046 68.2815 37.01 68.8233 37.6213C69.3651 38.2325 69.6366 39.1362 69.6366 40.3316C69.6366 41.5267 69.3651 42.437 68.8233 43.0623C68.2815 43.687 67.4923 43.9998 66.4565 43.9998C65.4276 43.9998 64.642 43.687 64.0999 43.0623ZM68.1239 42.4831C68.5081 41.9915 68.7 41.274 68.7 40.3316C68.7 39.3959 68.5081 38.6868 68.1239 38.2054C67.7397 37.7237 67.1838 37.483 66.4565 37.483C65.7295 37.483 65.1753 37.7237 64.7947 38.2054C64.414 38.6868 64.2235 39.3959 64.2235 40.3316C64.2235 41.2743 64.414 41.9915 64.7947 42.4831C65.1753 42.9747 65.7298 43.221 66.4565 43.221C67.1838 43.221 67.7397 42.9751 68.1239 42.4831Z" fill="#363A59"/>
<path d="M74.1438 41.8069L72.312 38.6307C72.2502 38.5283 72.1678 38.3745 72.065 38.1694L72.024 38.1796C72.0374 38.3027 72.0445 38.4906 72.0445 38.7433V43.7336C72.0445 43.8838 71.907 43.9591 71.6331 43.9591H71.561C71.2867 43.9591 71.1492 43.8838 71.1492 43.7336V36.9704C71.1492 36.8202 71.2867 36.7449 71.561 36.7449H71.9314C72.1508 36.7449 72.295 36.8065 72.3639 36.9293L74.3088 40.2899C74.4325 40.5021 74.5216 40.7171 74.5767 40.9356C74.6312 40.765 74.7375 40.5394 74.8955 40.2593L76.7888 36.9293C76.857 36.8061 77.0016 36.7449 77.221 36.7449H77.5607C77.8349 36.7449 77.9724 36.8202 77.9724 36.9704V43.7332C77.9724 43.8835 77.8349 43.9588 77.5607 43.9588H77.4889C77.2143 43.9588 77.0769 43.8835 77.0769 43.7332V38.8045C77.0769 38.5519 77.0839 38.364 77.0977 38.2408L77.0567 38.2306C76.9539 38.4357 76.8715 38.5895 76.81 38.6919L75.009 41.8069C74.9606 41.896 74.8853 41.9403 74.7824 41.9403H74.3707C74.2675 41.94 74.1919 41.8956 74.1438 41.8069Z" fill="#363A59"/>
<path d="M79.8965 43.7332V36.9704C79.8965 36.8202 80.034 36.7449 80.3082 36.7449H80.3905C80.6645 36.7449 80.8019 36.8202 80.8019 36.9704V43.7332C80.8019 43.8835 80.6645 43.9588 80.3905 43.9588H80.3082C80.0336 43.9588 79.8965 43.8835 79.8965 43.7332Z" fill="#363A59"/>
<path d="M81.9339 43.7847C81.9339 43.7506 81.9438 43.7027 81.9643 43.6412L84.4033 36.9093C84.4443 36.7999 84.5817 36.7454 84.815 36.7454H85.1133C85.3603 36.7454 85.4978 36.7999 85.525 36.9093L87.964 43.6514C87.9849 43.6992 87.9948 43.7436 87.9948 43.7847C87.9948 43.9009 87.8474 43.9589 87.5523 43.9589H87.4699C87.2296 43.9589 87.0928 43.9044 87.0585 43.7949L86.451 42.1146H83.4253L82.839 43.7949C82.8047 43.9044 82.6676 43.9589 82.4273 43.9589H82.376C82.0809 43.9589 81.9339 43.9009 81.9339 43.7847ZM86.1736 41.3359L85.0928 38.2821C85.0582 38.173 85.0172 37.9749 84.9691 37.6881H84.9486C84.8935 37.9612 84.8419 38.1596 84.7938 38.2821L83.7134 41.3359H86.1736Z" fill="#363A59"/>
<path d="M91.957 43.8562C91.6071 43.7609 91.3431 43.6447 91.1646 43.5082C91.0342 43.4128 90.9692 43.327 90.9692 43.2517C90.9692 43.17 91.0155 43.0571 91.1081 42.9135C91.2007 42.7703 91.2745 42.6985 91.3297 42.6985C91.3565 42.6985 91.4286 42.733 91.5456 42.8009C91.7584 42.9174 91.986 43.0162 92.2298 43.0982C92.4734 43.1802 92.7635 43.2214 93.0996 43.2214C93.4972 43.2214 93.8216 43.1106 94.0722 42.8885C94.3221 42.6665 94.4476 42.3744 94.4476 42.0126C94.4476 41.7596 94.3787 41.5499 94.2419 41.3824C94.1044 41.2149 93.9383 41.0819 93.7425 40.9826C93.5467 40.8834 93.264 40.7623 92.8939 40.6188C92.4956 40.4618 92.18 40.3182 91.9467 40.1884C91.7135 40.0589 91.5145 39.8657 91.3502 39.6095C91.1855 39.353 91.1035 39.0166 91.1035 38.6003C91.1035 38.2311 91.1975 37.9035 91.3866 37.6164C91.5749 37.3296 91.8425 37.1061 92.1892 36.9453C92.5352 36.7848 92.9349 36.7046 93.388 36.7046C93.6213 36.7046 93.8821 36.737 94.1701 36.8017C94.4585 36.8668 94.6812 36.9537 94.8392 37.0628C94.9767 37.1448 95.0452 37.2335 95.0452 37.3292C95.0452 37.4045 95.0021 37.5136 94.9166 37.6575C94.831 37.8008 94.7639 37.8725 94.7162 37.8725C94.6815 37.8725 94.6321 37.8553 94.5667 37.8212C94.5017 37.7867 94.4589 37.7631 94.4384 37.7494C94.0952 37.5717 93.7386 37.483 93.3682 37.483C92.9703 37.483 92.6494 37.5854 92.4058 37.7902C92.1623 37.995 92.0404 38.279 92.0404 38.6407C92.0404 38.873 92.1005 39.0605 92.2207 39.2045C92.3408 39.3477 92.4783 39.4554 92.6324 39.5272C92.7865 39.599 93.0558 39.7102 93.4403 39.8601C93.8517 40.0174 94.1878 40.1694 94.449 40.3161C94.7095 40.4632 94.9307 40.6747 95.1127 40.9517C95.2947 41.2282 95.3852 41.5816 95.3852 42.0123C95.3852 42.6267 95.1792 43.112 94.7678 43.467C94.3564 43.8224 93.8005 44.0002 93.1007 44.0002C92.6875 43.9998 92.3069 43.9519 91.957 43.8562Z" fill="#363A59"/>
<path d="M97.1332 43.0623C96.5911 42.4374 96.32 41.527 96.32 40.3316C96.32 39.1362 96.5893 38.2325 97.1276 37.6213C97.6662 37.01 98.4536 36.7046 99.4899 36.7046C100.525 36.7046 101.315 37.01 101.857 37.6213C102.399 38.2325 102.67 39.1362 102.67 40.3316C102.67 41.5267 102.399 42.437 101.857 43.0623C101.315 43.687 100.525 43.9998 99.4899 43.9998C98.4607 43.9998 97.675 43.687 97.1332 43.0623ZM101.157 42.4831C101.541 41.9915 101.733 41.274 101.733 40.3316C101.733 39.3959 101.541 38.6868 101.157 38.2054C100.772 37.7237 100.217 37.483 99.4899 37.483C98.7622 37.483 98.2087 37.7237 97.8277 38.2054C97.4471 38.6868 97.257 39.3959 97.257 40.3316C97.257 41.2743 97.4471 41.9915 97.8277 42.4831C98.2087 42.9747 98.7625 43.221 99.4899 43.221C100.217 43.221 100.772 42.9751 101.157 42.4831Z" fill="#363A59"/>
<path d="M104.651 43.1132C104.112 42.5224 103.843 41.6018 103.843 40.3515C103.843 37.9199 104.954 36.7041 107.177 36.7041C107.513 36.7041 107.837 36.74 108.15 36.8118C108.462 36.8832 108.71 36.9705 108.896 37.0729C109.06 37.1686 109.143 37.2573 109.143 37.3393C109.143 37.435 109.099 37.5582 109.014 37.7084C108.928 37.8587 108.854 37.934 108.793 37.934C108.772 37.934 108.684 37.8914 108.53 37.8059C108.376 37.7207 108.187 37.6454 107.964 37.5803C107.741 37.5152 107.486 37.4832 107.198 37.4832C106.367 37.4832 105.757 37.7119 105.366 38.1694C104.975 38.6272 104.779 39.3581 104.779 40.3621C104.779 41.3456 104.973 42.0684 105.361 42.5291C105.748 42.9904 106.347 43.2209 107.156 43.2209C107.492 43.2209 107.781 43.1818 108.021 43.103C108.261 43.0245 108.498 42.9236 108.731 42.8007C108.827 42.7392 108.892 42.7085 108.927 42.7085C108.988 42.7085 109.064 42.7838 109.153 42.9341C109.242 43.0844 109.287 43.1938 109.287 43.2621C109.287 43.3645 109.177 43.4771 108.957 43.6003C108.752 43.7164 108.491 43.8121 108.175 43.8871C107.86 43.962 107.52 43.9997 107.156 43.9997C106.024 43.9997 105.189 43.7041 104.651 43.1132Z" fill="#363A59"/>
<path d="M110.624 43.7332V36.9704C110.624 36.8202 110.762 36.7449 111.036 36.7449H111.118C111.392 36.7449 111.53 36.8202 111.53 36.9704V43.7332C111.53 43.8835 111.392 43.9588 111.118 43.9588H111.036C110.762 43.9588 110.624 43.8835 110.624 43.7332Z" fill="#363A59"/>
<path d="M112.662 43.7847C112.662 43.7506 112.672 43.7027 112.693 43.6412L115.132 36.9093C115.173 36.7999 115.31 36.7454 115.543 36.7454H115.842C116.088 36.7454 116.226 36.7999 116.253 36.9093L118.692 43.6514C118.713 43.6992 118.723 43.7436 118.723 43.7847C118.723 43.9009 118.575 43.9589 118.281 43.9589H118.198C117.958 43.9589 117.821 43.9044 117.786 43.7949L117.179 42.1146H114.154L113.567 43.7949C113.533 43.9044 113.396 43.9589 113.156 43.9589H113.104C112.809 43.9589 112.662 43.9009 112.662 43.7847ZM116.902 41.3359L115.821 38.2821C115.786 38.173 115.745 37.9749 115.697 37.6881H115.677C115.621 37.9612 115.57 38.1596 115.522 38.2821L114.441 41.3359H116.902Z" fill="#363A59"/>
<path d="M119.917 43.8662C119.868 43.8184 119.845 43.7403 119.845 43.6308V36.9704C119.845 36.8202 119.982 36.7449 120.256 36.7449H120.338C120.613 36.7449 120.75 36.8202 120.75 36.9704V43.1593H123.58C123.655 43.1593 123.709 43.1832 123.739 43.2311C123.77 43.2789 123.786 43.3574 123.786 43.4665V43.6308C123.786 43.7403 123.77 43.8184 123.739 43.8662C123.709 43.9145 123.655 43.938 123.58 43.938H120.153C120.043 43.938 119.964 43.9145 119.917 43.8662Z" fill="#363A59"/>
</g>
<defs>
<clipPath id="clip0">
<rect width="130" height="44" fill="white"/>
</clipPath>
</defs>
</svg>
