<svg width="130" height="19" viewBox="0 0 130 19" fill="none" xmlns="http://www.w3.org/2000/svg">
<path d="M2.12018 16.4808C0.706492 14.9514 0 12.5698 0 9.33547C0 3.11214 2.93164 0.00100708 8.79563 0.00100708C9.67318 0.00100708 10.5688 0.0928518 11.482 0.276191C12.3945 0.45953 13.1056 0.700229 13.6153 0.997231C14.0715 1.2594 14.2998 1.53916 14.2998 1.83651C14.2998 2.08143 14.2034 2.40025 14.0104 2.79367C13.8171 3.18674 13.5845 3.53653 13.3124 3.84233C13.0399 4.14813 12.7989 4.30121 12.5882 4.30121C12.5356 4.30121 12.3249 4.22238 11.9563 4.06508C11.5877 3.90814 11.1399 3.76808 10.6133 3.64597C10.0867 3.52386 9.45441 3.46228 8.71717 3.46228C7.17201 3.46228 6.02656 3.95212 5.28049 4.93075C4.53406 5.91009 4.1612 7.38701 4.1612 9.36221C4.1612 13.3478 5.66254 15.3406 8.66451 15.3406C9.45441 15.3406 10.1393 15.2618 10.7186 15.1045C11.2982 14.9472 11.8598 14.7463 12.4041 14.5013C12.6847 14.362 12.878 14.2916 12.9833 14.2916C13.2466 14.2916 13.4969 14.4405 13.734 14.7375C13.9712 15.0352 14.1641 15.3712 14.3136 15.7471C14.4624 16.1229 14.5373 16.3984 14.5373 16.573C14.5373 17.0276 14.2299 17.4298 13.6156 17.7793C13.036 18.1115 12.2726 18.3606 11.3244 18.5267C10.3765 18.6925 9.48975 18.7755 8.66451 18.7755C5.71485 18.7751 3.53317 18.0108 2.12018 16.4808Z" fill="#2AB9CF"/>
<path d="M18.4868 16.3492C17.0293 14.7322 16.3009 12.4118 16.3009 9.38761C16.3009 6.36339 17.0293 4.04298 18.4868 2.426C19.944 0.809028 22.0331 0.000366211 24.7544 0.000366211C27.4754 0.000366211 29.5606 0.809028 31.0089 2.426C32.4573 4.04298 33.1814 6.36339 33.1814 9.38761C33.1814 12.4118 32.4573 14.7322 31.0089 16.3492C29.5606 17.9662 27.4754 18.7745 24.7544 18.7745C22.0327 18.7745 19.9436 17.9662 18.4868 16.3492ZM27.9409 13.8187C28.6608 12.8052 29.0206 11.328 29.0206 9.38761C29.0206 7.44689 28.6604 5.97455 27.9409 4.96917C27.221 3.96415 26.1589 3.46129 24.7544 3.46129C23.3496 3.46129 22.2829 3.96415 21.5545 4.96917C20.8258 5.97419 20.4617 7.44689 20.4617 9.38761C20.4617 11.328 20.8261 12.8052 21.5545 13.8187C22.2829 14.8329 23.3496 15.3396 24.7544 15.3396C26.1589 15.3396 27.221 14.8329 27.9409 13.8187Z" fill="#2AB9CF"/>
<path d="M37.7371 16.3492C36.2796 14.7322 35.5511 12.4118 35.5511 9.38761C35.5511 6.36339 36.2796 4.04298 37.7371 2.426C39.1942 0.809028 41.2833 0.000366211 44.0047 0.000366211C46.7257 0.000366211 48.8109 0.809028 50.2592 2.426C51.7075 4.04298 52.4317 6.36339 52.4317 9.38761C52.4317 12.4118 51.7075 14.7322 50.2592 16.3492C48.8109 17.9662 46.7257 18.7745 44.0047 18.7745C41.2833 18.7745 39.1942 17.9662 37.7371 16.3492ZM47.1911 13.8187C47.911 12.8052 48.2708 11.328 48.2708 9.38761C48.2708 7.44689 47.9107 5.97455 47.1911 4.96917C46.4712 3.96415 45.4092 3.46129 44.0047 3.46129C42.5998 3.46129 41.5332 3.96415 40.8048 4.96917C40.076 5.97419 39.712 7.44689 39.712 9.38761C39.712 11.328 40.0764 12.8052 40.8048 13.8187C41.5332 14.8329 42.5998 15.3396 44.0047 15.3396C45.4092 15.3396 46.4712 14.8329 47.1911 13.8187Z" fill="#2AB9CF"/>
<path d="M55.4337 17.7783V1.25874C55.4337 0.89171 55.5167 0.625323 55.6839 0.459227C55.8507 0.293131 56.1182 0.210083 56.4872 0.210083H62.0172C63.6673 0.210083 65.1245 0.608081 66.3887 1.40337C67.6529 2.19901 68.2848 3.71499 68.2848 5.95272C68.2848 7.49122 67.9162 8.6845 67.1786 9.53187C66.4414 10.3799 65.6158 10.9525 64.7032 11.2495C63.7903 11.5468 62.9824 11.6953 62.2805 11.6953H59.4892V17.7786C59.4892 18.3385 58.9626 18.6179 57.909 18.6179H57.0138C55.9603 18.6175 55.4337 18.3381 55.4337 17.7783ZM61.8327 8.23372C62.4646 8.23372 63.0047 8.06762 63.4525 7.73578C63.9002 7.40394 64.124 6.80924 64.124 5.95272C64.124 5.0962 63.9002 4.49726 63.4525 4.15662C63.0047 3.81599 62.465 3.64567 61.8327 3.64567H59.4888V8.23407H61.8327V8.23372Z" fill="#2AB9CF"/>
<path d="M70.8785 18.3156C70.7114 18.1495 70.6283 17.8831 70.6283 17.5161V1.25874C70.6283 0.89171 70.7114 0.625323 70.8785 0.459227C71.045 0.293131 71.3129 0.210083 71.6815 0.210083H77.3172C80.0382 0.210083 82.1234 1.00115 83.5717 2.58293C85.02 4.16542 85.7442 6.43341 85.7442 9.3876C85.7442 12.3421 85.02 14.6101 83.5717 16.1919C82.1234 17.774 80.0382 18.5648 77.3172 18.5648H71.6815C71.3129 18.5648 71.0454 18.4821 70.8785 18.3156ZM77.3176 15.1299C78.7221 15.1299 79.7841 14.6404 80.504 13.6614C81.2236 12.6824 81.5837 11.2579 81.5837 9.38724C81.5837 7.51655 81.2236 6.09242 80.504 5.11309C79.7837 4.13446 78.7221 3.64496 77.3176 3.64496H74.7104V15.1299H77.3176Z" fill="#2AB9CF"/>
<path d="M89.1809 18.3156C89.0138 18.1495 88.9307 17.8831 88.9307 17.5161V1.25874C88.9307 0.89171 89.0138 0.625323 89.1809 0.459227C89.3474 0.293131 89.6153 0.210083 89.9839 0.210083H99.2273C99.508 0.210083 99.7101 0.314949 99.8331 0.525032C99.9558 0.734764 100.018 1.06696 100.018 1.52126V2.33414C100.018 2.78915 99.9558 3.12099 99.8331 3.33072C99.7101 3.54045 99.5083 3.64567 99.2273 3.64567H92.9862V7.44688H98.5163C98.7969 7.44688 98.999 7.55174 99.122 7.76183C99.2447 7.97156 99.3062 8.30375 99.3062 8.75805V9.57129C99.3062 10.0259 99.2447 10.3578 99.122 10.5675C98.999 10.7776 98.7969 10.8825 98.5163 10.8825H92.9862V15.1302H99.2539C99.5345 15.1302 99.7366 15.2351 99.8596 15.4448C99.9823 15.6549 100.044 15.9867 100.044 16.4414V17.2543C100.044 17.7089 99.9819 18.0408 99.8596 18.2505C99.7366 18.4606 99.5345 18.5655 99.2539 18.5655H89.9839C89.6153 18.5648 89.3474 18.4821 89.1809 18.3156Z" fill="#2AB9CF"/>
<path d="M107.233 18.0665L101.545 1.20665C101.474 0.962079 101.439 0.804429 101.439 0.734401C101.439 0.350128 101.975 0.157288 103.046 0.157288H103.915C104.792 0.157288 105.31 0.411006 105.468 0.91774L109.024 12.2717L109.313 13.1891H109.419L109.708 12.2717L113.368 0.91774C113.544 0.411006 114.062 0.157288 114.922 0.157288H115.739C116.792 0.157288 117.319 0.350128 117.319 0.734401C117.319 0.857213 117.293 1.01416 117.24 1.20665L111.552 18.0665C111.429 18.4335 110.937 18.6172 110.077 18.6172H108.708C107.847 18.6175 107.356 18.4335 107.233 18.0665Z" fill="#2AB9CF"/>
<path d="M121.058 18.4075C120.128 18.1629 119.399 17.8483 118.872 17.4633C118.381 17.1318 118.135 16.7993 118.135 16.4671C118.135 16.2049 118.231 15.89 118.425 15.5229C118.618 15.1559 118.846 14.8325 119.11 14.5528C119.373 14.2734 119.592 14.1333 119.768 14.1333C119.874 14.1333 120.119 14.2382 120.506 14.4483C121.067 14.728 121.576 14.9462 122.033 15.1035C122.49 15.2608 123.025 15.3396 123.639 15.3396C124.324 15.3396 124.907 15.2045 125.391 14.9332C125.873 14.6622 126.115 14.1861 126.115 13.5041C126.115 12.9446 125.891 12.5033 125.443 12.1799C124.995 11.8565 124.272 11.4941 123.271 11.0915L122.059 10.5672C120.953 10.0428 120.084 9.39182 119.452 8.61377C118.82 7.83608 118.504 6.73006 118.504 5.29678C118.504 4.10806 118.798 3.11641 119.386 2.32042C119.974 1.52513 120.742 0.939921 121.691 0.563742C122.638 0.188266 123.656 0 124.746 0C125.641 0 126.453 0.091846 127.181 0.275185C127.91 0.458524 128.485 0.699223 128.906 0.996225C129.292 1.27598 129.486 1.5561 129.486 1.8355C129.486 2.08042 129.406 2.38587 129.248 2.7529C129.09 3.12028 128.897 3.43911 128.669 3.71007C128.441 3.98138 128.23 4.11651 128.037 4.11651C127.949 4.11651 127.804 4.07323 127.603 3.98525C127.4 3.89833 127.229 3.8283 127.089 3.77552C126.457 3.56579 125.799 3.46057 125.114 3.46057C124.201 3.46057 123.564 3.60942 123.205 3.90678C122.845 4.20413 122.665 4.54477 122.665 4.92904C122.665 5.38405 122.788 5.75952 123.034 6.05653C123.28 6.35423 123.578 6.59387 123.929 6.77792C124.28 6.96126 124.799 7.2016 125.483 7.49896C126.484 7.91842 127.3 8.31607 127.932 8.69225C128.564 9.06843 129.113 9.60965 129.578 10.3177C130.043 11.0257 130.276 11.9304 130.276 13.0315C130.276 14.3779 129.99 15.4793 129.42 16.3355C128.849 17.1924 128.117 17.8128 127.221 18.1974C126.326 18.5816 125.36 18.7741 124.325 18.7741C123.077 18.7745 121.989 18.652 121.058 18.4075Z" fill="#2AB9CF"/>
</svg>
