<?xml version="1.0" encoding="utf-8"?>
<!-- Generator: Adobe Illustrator 16.0.0, SVG Export Plug-In . SVG Version: 6.00 Build 0)  -->
<!DOCTYPE svg PUBLIC "-//W3C//DTD SVG 1.1//EN" "http://www.w3.org/Graphics/SVG/1.1/DTD/svg11.dtd">
<svg version="1.1" id="Layer_1" xmlns="http://www.w3.org/2000/svg" xmlns:xlink="http://www.w3.org/1999/xlink" x="0px" y="0px"
	 width="818.109px" height="144.55px" viewBox="0 0 818.109 144.55" enable-background="new 0 0 818.109 144.55"
	 xml:space="preserve">
<g enable-background="new    ">
	<path fill="#2AB9CF" d="M54.318,97.3c-4-4.346-5.999-11.114-5.999-20.305c0-17.685,8.295-26.526,24.887-26.526
		c2.483,0,5.017,0.261,7.601,0.782c2.582,0.521,4.594,1.205,6.036,2.049c1.291,0.745,1.937,1.54,1.937,2.385
		c0,0.696-0.273,1.602-0.819,2.72c-0.547,1.117-1.205,2.111-1.975,2.98c-0.771,0.869-1.453,1.304-2.049,1.304
		c-0.149,0-0.745-0.224-1.788-0.671c-1.043-0.446-2.31-0.844-3.8-1.191s-3.279-0.522-5.365-0.522c-4.372,0-7.613,1.392-9.724,4.173
		c-2.112,2.783-3.167,6.98-3.167,12.593c0,11.326,4.248,16.989,12.742,16.989c2.235,0,4.173-0.224,5.812-0.671
		c1.64-0.447,3.229-1.018,4.769-1.714c0.794-0.396,1.341-0.596,1.639-0.596c0.745,0,1.453,0.423,2.124,1.267
		c0.671,0.846,1.217,1.801,1.64,2.869c0.421,1.068,0.633,1.851,0.633,2.347c0,1.292-0.87,2.435-2.608,3.428
		c-1.64,0.944-3.8,1.652-6.483,2.124c-2.682,0.471-5.191,0.707-7.526,0.707C64.489,103.82,58.316,101.648,54.318,97.3z"/>
	<path fill="#2AB9CF" d="M100.627,96.928c-4.124-4.595-6.185-11.189-6.185-19.783s2.061-15.188,6.185-19.783
		c4.123-4.595,10.034-6.893,17.734-6.893c7.699,0,13.599,2.298,17.697,6.893s6.147,11.189,6.147,19.783s-2.049,15.188-6.147,19.783
		s-9.998,6.892-17.697,6.892C110.66,103.82,104.749,101.523,100.627,96.928z M127.377,89.737c2.037-2.88,3.055-7.078,3.055-12.592
		c0-5.515-1.019-9.699-3.055-12.556c-2.037-2.856-5.042-4.285-9.016-4.285c-3.975,0-6.993,1.429-9.054,4.285
		c-2.062,2.856-3.092,7.041-3.092,12.556c0,5.514,1.031,9.712,3.092,12.592c2.061,2.882,5.079,4.322,9.054,4.322
		C122.335,94.059,125.34,92.619,127.377,89.737z"/>
	<path fill="#2AB9CF" d="M155.095,96.928c-4.124-4.595-6.185-11.189-6.185-19.783s2.061-15.188,6.185-19.783
		c4.123-4.595,10.034-6.893,17.734-6.893c7.699,0,13.599,2.298,17.697,6.893s6.147,11.189,6.147,19.783s-2.049,15.188-6.147,19.783
		s-9.998,6.892-17.697,6.892C165.129,103.82,159.218,101.523,155.095,96.928z M181.845,89.737c2.037-2.88,3.055-7.078,3.055-12.592
		c0-5.515-1.019-9.699-3.055-12.556c-2.037-2.856-5.042-4.285-9.016-4.285c-3.975,0-6.993,1.429-9.054,4.285
		c-2.062,2.856-3.092,7.041-3.092,12.556c0,5.514,1.031,9.712,3.092,12.592c2.061,2.882,5.079,4.322,9.054,4.322
		C176.803,94.059,179.808,92.619,181.845,89.737z"/>
	<path fill="#2AB9CF" d="M205.167,100.989V54.045c0-1.043,0.235-1.8,0.708-2.272c0.472-0.472,1.229-0.708,2.273-0.708h15.647
		c4.669,0,8.792,1.131,12.369,3.391c3.577,2.261,5.365,6.569,5.365,12.928c0,4.372-1.043,7.763-3.13,10.171
		c-2.086,2.41-4.422,4.037-7.004,4.881c-2.583,0.845-4.869,1.267-6.855,1.267h-7.898v17.287c0,1.591-1.49,2.385-4.471,2.385h-2.533
		C206.657,103.374,205.167,102.58,205.167,100.989z M223.273,73.866c1.788,0,3.316-0.472,4.583-1.415s1.9-2.633,1.9-5.067
		c0-2.434-0.633-4.136-1.9-5.104c-1.267-0.968-2.794-1.452-4.583-1.452h-6.632v13.039H223.273z"/>
	<path fill="#2AB9CF" d="M248.868,102.516c-0.473-0.472-0.708-1.229-0.708-2.272V54.045c0-1.043,0.235-1.8,0.708-2.272
		c0.471-0.472,1.229-0.708,2.272-0.708h15.946c7.699,0,13.599,2.248,17.697,6.743c4.098,4.497,6.147,10.942,6.147,19.337
		c0,8.396-2.049,14.841-6.147,19.336c-4.098,4.496-9.998,6.743-17.697,6.743h-15.946
		C250.097,103.224,249.34,102.989,248.868,102.516z M267.087,93.463c3.974,0,6.979-1.391,9.016-4.173
		c2.036-2.782,3.055-6.83,3.055-12.146s-1.019-9.363-3.055-12.146c-2.038-2.781-5.042-4.172-9.016-4.172h-7.377v32.637H267.087z"/>
	<path fill="#2AB9CF" d="M300.654,102.516c-0.473-0.472-0.708-1.229-0.708-2.272V54.045c0-1.043,0.235-1.8,0.708-2.272
		c0.471-0.472,1.229-0.708,2.272-0.708h26.154c0.794,0,1.366,0.298,1.714,0.895c0.347,0.596,0.522,1.54,0.522,2.831v2.31
		c0,1.293-0.175,2.236-0.522,2.832c-0.348,0.596-0.919,0.895-1.714,0.895h-17.659V71.63h15.647c0.794,0,1.366,0.298,1.714,0.895
		c0.347,0.596,0.521,1.54,0.521,2.831v2.311c0,1.292-0.174,2.235-0.521,2.831c-0.348,0.597-0.92,0.895-1.714,0.895h-15.647v12.071
		h17.734c0.794,0,1.366,0.298,1.714,0.894c0.347,0.597,0.521,1.54,0.521,2.832v2.31c0,1.292-0.175,2.235-0.521,2.831
		c-0.348,0.597-0.92,0.895-1.714,0.895h-26.229C301.883,103.224,301.125,102.989,300.654,102.516z"/>
	<path fill="#2AB9CF" d="M351.732,101.808l-16.095-47.911c-0.199-0.695-0.298-1.143-0.298-1.342c0-1.092,1.515-1.64,4.545-1.64
		h2.459c2.483,0,3.949,0.721,4.396,2.161l10.06,32.265l0.819,2.607h0.298l0.819-2.607l10.357-32.265
		c0.496-1.44,1.962-2.161,4.396-2.161h2.31c2.98,0,4.471,0.548,4.471,1.64c0,0.349-0.074,0.795-0.223,1.342l-16.095,47.911
		c-0.348,1.043-1.739,1.565-4.172,1.565h-3.875C353.47,103.374,352.079,102.851,351.732,101.808z"/>
	<path fill="#2AB9CF" d="M390.85,102.777c-2.633-0.695-4.694-1.589-6.185-2.683c-1.391-0.942-2.086-1.887-2.086-2.831
		c0-0.745,0.272-1.64,0.82-2.683c0.546-1.043,1.192-1.962,1.938-2.757c0.745-0.794,1.365-1.192,1.863-1.192
		c0.298,0,0.993,0.298,2.086,0.895c1.589,0.795,3.03,1.415,4.322,1.862c1.292,0.447,2.806,0.671,4.545,0.671
		c1.938,0,3.588-0.384,4.955-1.155c1.366-0.77,2.049-2.123,2.049-4.061c0-1.59-0.633-2.844-1.9-3.763
		c-1.267-0.919-3.315-1.949-6.147-3.093l-3.428-1.49c-3.129-1.49-5.588-3.34-7.377-5.551c-1.788-2.21-2.682-5.353-2.682-9.426
		c0-3.378,0.831-6.196,2.496-8.458c1.664-2.26,3.837-3.923,6.52-4.992c2.682-1.067,5.562-1.602,8.644-1.602
		c2.533,0,4.83,0.261,6.892,0.782c2.061,0.521,3.689,1.205,4.88,2.049c1.092,0.795,1.64,1.591,1.64,2.385
		c0,0.696-0.224,1.564-0.671,2.607c-0.447,1.044-0.994,1.95-1.639,2.72c-0.646,0.771-1.242,1.155-1.789,1.155
		c-0.248,0-0.658-0.123-1.229-0.373c-0.572-0.247-1.056-0.446-1.453-0.596c-1.788-0.596-3.651-0.895-5.588-0.895
		c-2.583,0-4.385,0.423-5.402,1.268c-1.019,0.845-1.527,1.813-1.527,2.905c0,1.293,0.347,2.36,1.043,3.204
		c0.695,0.846,1.54,1.527,2.534,2.05c0.993,0.521,2.459,1.204,4.396,2.049c2.832,1.192,5.142,2.322,6.93,3.391
		s3.341,2.607,4.657,4.619c1.315,2.012,1.975,4.583,1.975,7.712c0,3.826-0.809,6.956-2.422,9.389
		c-1.615,2.435-3.688,4.198-6.222,5.291c-2.533,1.092-5.266,1.639-8.196,1.639C396.562,103.82,393.483,103.472,390.85,102.777z"/>
</g>
<g enable-background="new    ">
	<path fill="#363A59" d="M440.918,72.042c-0.99-0.271-1.737-0.601-2.242-0.989c-0.369-0.271-0.553-0.515-0.553-0.729
		c0-0.232,0.131-0.553,0.393-0.961c0.262-0.407,0.471-0.611,0.627-0.611c0.076,0,0.28,0.098,0.611,0.291
		c0.602,0.331,1.246,0.612,1.936,0.845c0.689,0.233,1.51,0.35,2.461,0.35c1.125,0,2.043-0.315,2.752-0.946
		c0.707-0.631,1.062-1.461,1.062-2.489c0-0.719-0.195-1.315-0.582-1.791c-0.389-0.476-0.859-0.854-1.413-1.136
		s-1.354-0.626-2.401-1.034c-1.127-0.446-2.02-0.854-2.68-1.223c-0.66-0.368-1.223-0.917-1.688-1.645
		c-0.466-0.729-0.698-1.685-0.698-2.868c0-1.049,0.266-1.98,0.801-2.796c0.533-0.815,1.29-1.45,2.271-1.907
		c0.979-0.456,2.11-0.684,3.392-0.684c0.66,0,1.398,0.092,2.213,0.276c0.816,0.185,1.446,0.432,1.893,0.742
		c0.389,0.233,0.583,0.485,0.583,0.757c0,0.214-0.122,0.524-0.364,0.933c-0.242,0.407-0.432,0.611-0.567,0.611
		c-0.098,0-0.238-0.049-0.423-0.146c-0.184-0.098-0.305-0.165-0.363-0.204c-0.971-0.505-1.98-0.757-3.028-0.757
		c-1.126,0-2.034,0.291-2.723,0.873s-1.034,1.389-1.034,2.417c0,0.66,0.17,1.193,0.51,1.602c0.34,0.407,0.729,0.713,1.165,0.917
		s1.198,0.52,2.286,0.946c1.164,0.447,2.115,0.879,2.854,1.296c0.737,0.418,1.363,1.019,1.878,1.806
		c0.515,0.786,0.771,1.79,0.771,3.014c0,1.746-0.583,3.125-1.747,4.134c-1.164,1.01-2.737,1.515-4.717,1.515
		C442.986,72.45,441.908,72.314,440.918,72.042z"/>
	<path fill="#363A59" d="M455.565,69.786c-1.534-1.776-2.301-4.363-2.301-7.76c0-3.397,0.762-5.965,2.285-7.702
		c1.524-1.737,3.752-2.605,6.684-2.605c2.93,0,5.163,0.868,6.697,2.605c1.533,1.737,2.3,4.305,2.3,7.702
		c0,3.396-0.767,5.983-2.3,7.76c-1.534,1.775-3.768,2.664-6.697,2.664C459.321,72.45,457.098,71.561,455.565,69.786z M466.949,68.14
		c1.086-1.397,1.631-3.436,1.631-6.114c0-2.659-0.545-4.674-1.631-6.042c-1.088-1.369-2.66-2.053-4.717-2.053
		c-2.059,0-3.625,0.684-4.703,2.053c-1.077,1.368-1.615,3.383-1.615,6.042c0,2.679,0.538,4.717,1.615,6.114
		c1.078,1.397,2.645,2.097,4.703,2.097C464.289,70.237,465.862,69.538,466.949,68.14z"/>
	<path fill="#363A59" d="M475.713,71.693V52.766c0-0.311,0.068-0.533,0.204-0.67c0.136-0.136,0.358-0.203,0.669-0.203h9.173
		c0.214,0,0.364,0.067,0.451,0.203c0.087,0.137,0.131,0.359,0.131,0.67v0.466c0,0.311-0.044,0.534-0.131,0.67
		s-0.237,0.204-0.451,0.204h-7.483v6.639h6.959c0.213,0,0.364,0.068,0.451,0.203c0.088,0.137,0.131,0.359,0.131,0.67v0.466
		c0,0.311-0.043,0.534-0.131,0.67c-0.087,0.136-0.238,0.204-0.451,0.204h-6.959v8.735c0,0.427-0.389,0.641-1.164,0.641h-0.233
		C476.102,72.333,475.713,72.12,475.713,71.693z"/>
	<path fill="#363A59" d="M494.29,71.693V54.106h-5.591c-0.194,0-0.34-0.068-0.437-0.204c-0.098-0.136-0.146-0.359-0.146-0.67v-0.466
		c0-0.311,0.048-0.533,0.146-0.67c0.097-0.136,0.242-0.203,0.437-0.203h13.656c0.213,0,0.364,0.067,0.451,0.203
		c0.088,0.137,0.131,0.359,0.131,0.67v0.466c0,0.311-0.043,0.534-0.131,0.67c-0.087,0.136-0.238,0.204-0.451,0.204h-5.503v17.587
		c0,0.427-0.389,0.641-1.165,0.641h-0.232C494.678,72.333,494.29,72.12,494.29,71.693z"/>
	<path fill="#363A59" d="M509.024,71.868l-4.979-19.131c-0.058-0.232-0.087-0.368-0.087-0.407c0-0.33,0.417-0.495,1.252-0.495h0.291
		c0.699,0,1.087,0.155,1.164,0.466l3.699,14.326c0.096,0.368,0.203,0.888,0.32,1.558c0.115,0.67,0.184,1.053,0.203,1.15l0.699-2.796
		l3.523-14.209c0.076-0.33,0.455-0.495,1.135-0.495h0.467c0.679,0,1.057,0.165,1.135,0.495l3.611,14.325
		c0.115,0.428,0.223,0.938,0.32,1.529c0.096,0.592,0.154,0.976,0.174,1.15l0.699-2.767l3.523-14.268
		c0.077-0.311,0.465-0.466,1.164-0.466h0.175c0.835,0,1.253,0.165,1.253,0.495l-0.088,0.407l-5.037,19.131
		c-0.078,0.311-0.467,0.466-1.165,0.466h-1.194c-0.698,0-1.087-0.155-1.164-0.466l-3.174-11.852l-0.611-3.785l-0.611,3.785
		l-3.174,11.852c-0.078,0.311-0.467,0.466-1.165,0.466h-1.194C509.49,72.333,509.101,72.178,509.024,71.868z"/>
	<path fill="#363A59" d="M528.678,71.838c0-0.097,0.029-0.233,0.087-0.408l6.901-19.13c0.116-0.311,0.504-0.466,1.164-0.466h0.845
		c0.698,0,1.087,0.155,1.165,0.466l6.9,19.159c0.059,0.136,0.088,0.262,0.088,0.379c0,0.33-0.418,0.495-1.252,0.495h-0.233
		c-0.68,0-1.067-0.155-1.165-0.466l-1.718-4.775H532.9l-1.659,4.775c-0.098,0.311-0.486,0.466-1.165,0.466h-0.146
		C529.095,72.333,528.678,72.168,528.678,71.838z M540.674,64.879l-3.057-8.678c-0.098-0.31-0.215-0.873-0.35-1.688h-0.059
		c-0.156,0.776-0.301,1.34-0.437,1.688l-3.058,8.678H540.674z"/>
	<path fill="#363A59" d="M549.001,71.693V52.766c0-0.311,0.067-0.533,0.204-0.67c0.135-0.136,0.359-0.203,0.67-0.203h4.892
		c2.329,0,4.081,0.412,5.255,1.237c1.175,0.825,1.762,2.13,1.762,3.916c0,1.204-0.291,2.218-0.873,3.043s-1.408,1.451-2.475,1.878
		v0.116c0.562,0.194,1.033,0.573,1.412,1.136c0.379,0.563,0.781,1.397,1.208,2.504l2.271,5.736c0.058,0.175,0.087,0.311,0.087,0.408
		c0,0.311-0.407,0.466-1.223,0.466h-0.291c-0.291,0-0.544-0.044-0.758-0.132c-0.213-0.087-0.349-0.198-0.407-0.334l-2.213-5.707
		c-0.427-1.106-0.961-1.859-1.601-2.257c-0.641-0.397-1.555-0.597-2.738-0.597h-2.62v8.386c0,0.427-0.389,0.641-1.165,0.641h-0.232
		C549.389,72.333,549.001,72.12,549.001,71.693z M555.407,61.093c0.679,0,1.306-0.164,1.878-0.494s1.023-0.767,1.354-1.311
		c0.33-0.543,0.496-1.136,0.496-1.776c0-1.146-0.35-1.999-1.049-2.562c-0.699-0.562-1.66-0.844-2.883-0.844h-3.64v6.987H555.407z"/>
	<path fill="#363A59" d="M566.967,72.071c-0.137-0.136-0.205-0.358-0.205-0.669V52.766c0-0.311,0.068-0.533,0.205-0.67
		c0.135-0.136,0.358-0.203,0.669-0.203h10.162c0.214,0,0.364,0.067,0.452,0.203c0.086,0.137,0.131,0.359,0.131,0.67v0.466
		c0,0.311-0.045,0.534-0.131,0.67c-0.088,0.136-0.238,0.204-0.452,0.204h-8.474v6.639h7.6c0.214,0,0.365,0.068,0.452,0.203
		c0.087,0.137,0.131,0.359,0.131,0.67v0.466c0,0.311-0.044,0.534-0.131,0.67s-0.238,0.204-0.452,0.204h-7.6v7.104h8.503
		c0.214,0,0.364,0.068,0.451,0.204s0.132,0.359,0.132,0.669v0.467c0,0.311-0.045,0.533-0.132,0.669
		c-0.087,0.137-0.237,0.204-0.451,0.204h-10.191C567.325,72.275,567.102,72.208,566.967,72.071z"/>
	<path fill="#363A59" d="M589.852,72.071c-0.136-0.136-0.203-0.358-0.203-0.669V52.475c0-0.427,0.388-0.641,1.164-0.641h0.233
		c0.776,0,1.165,0.214,1.165,0.641v17.587h8.007c0.214,0,0.364,0.068,0.451,0.204s0.132,0.359,0.132,0.669v0.467
		c0,0.311-0.045,0.533-0.132,0.669c-0.087,0.137-0.237,0.204-0.451,0.204h-9.696C590.211,72.275,589.988,72.208,589.852,72.071z"/>
	<path fill="#363A59" d="M603.946,72.071c-0.137-0.136-0.205-0.358-0.205-0.669V52.475c0-0.427,0.389-0.641,1.166-0.641h0.232
		c0.775,0,1.164,0.214,1.164,0.641v17.587h8.008c0.213,0,0.364,0.068,0.451,0.204c0.088,0.136,0.131,0.359,0.131,0.669v0.467
		c0,0.311-0.043,0.533-0.131,0.669c-0.087,0.137-0.238,0.204-0.451,0.204h-9.696C604.304,72.275,604.08,72.208,603.946,72.071z"/>
	<path fill="#363A59" d="M617.834,71.693V52.475c0-0.427,0.388-0.641,1.164-0.641h0.233c0.776,0,1.165,0.214,1.165,0.641v19.218
		c0,0.427-0.389,0.641-1.165,0.641h-0.233C618.222,72.333,617.834,72.12,617.834,71.693z"/>
	<path fill="#363A59" d="M627.719,70.688c-1.368-1.174-2.053-2.819-2.053-4.936V52.475c0-0.427,0.389-0.641,1.165-0.641h0.233
		c0.775,0,1.164,0.214,1.164,0.641V65.84c0,0.854,0.232,1.615,0.699,2.285c0.466,0.67,1.105,1.189,1.922,1.558
		c0.814,0.369,1.736,0.554,2.766,0.554s1.951-0.189,2.766-0.568c0.816-0.378,1.457-0.902,1.922-1.572
		c0.467-0.669,0.699-1.422,0.699-2.256V52.475c0-0.427,0.389-0.641,1.165-0.641h0.233c0.775,0,1.164,0.214,1.164,0.641v13.277
		c0,2.116-0.689,3.762-2.067,4.936c-1.378,1.175-3.339,1.762-5.882,1.762C631.053,72.45,629.088,71.863,627.719,70.688z"/>
	<path fill="#363A59" d="M646.805,71.693V52.766c0-0.311,0.068-0.533,0.205-0.67c0.135-0.136,0.358-0.203,0.669-0.203h4.892
		c2.33,0,4.082,0.412,5.256,1.237s1.762,2.13,1.762,3.916c0,1.204-0.291,2.218-0.873,3.043s-1.408,1.451-2.476,1.878v0.116
		c0.563,0.194,1.034,0.573,1.413,1.136c0.378,0.563,0.78,1.397,1.207,2.504l2.271,5.736c0.059,0.175,0.088,0.311,0.088,0.408
		c0,0.311-0.408,0.466-1.223,0.466h-0.291c-0.292,0-0.545-0.044-0.758-0.132c-0.214-0.087-0.35-0.198-0.408-0.334l-2.213-5.707
		c-0.427-1.106-0.961-1.859-1.601-2.257c-0.641-0.397-1.554-0.597-2.737-0.597h-2.621v8.386c0,0.427-0.389,0.641-1.164,0.641h-0.232
		C647.194,72.333,646.805,72.12,646.805,71.693z M653.211,61.093c0.68,0,1.306-0.164,1.879-0.494
		c0.572-0.33,1.023-0.767,1.354-1.311c0.33-0.543,0.495-1.136,0.495-1.776c0-1.146-0.35-1.999-1.048-2.562
		c-0.699-0.562-1.66-0.844-2.883-0.844h-3.641v6.987H653.211z"/>
	<path fill="#363A59" d="M664.771,72.071c-0.136-0.136-0.204-0.358-0.204-0.669V52.766c0-0.311,0.068-0.533,0.204-0.67
		c0.136-0.136,0.358-0.203,0.669-0.203h10.162c0.214,0,0.365,0.067,0.452,0.203c0.087,0.137,0.131,0.359,0.131,0.67v0.466
		c0,0.311-0.044,0.534-0.131,0.67s-0.238,0.204-0.452,0.204h-8.473v6.639h7.6c0.213,0,0.364,0.068,0.451,0.203
		c0.088,0.137,0.131,0.359,0.131,0.67v0.466c0,0.311-0.043,0.534-0.131,0.67c-0.087,0.136-0.238,0.204-0.451,0.204h-7.6v7.104h8.502
		c0.214,0,0.364,0.068,0.451,0.204c0.088,0.136,0.132,0.359,0.132,0.669v0.467c0,0.311-0.044,0.533-0.132,0.669
		c-0.087,0.137-0.237,0.204-0.451,0.204H665.44C665.129,72.275,664.906,72.208,664.771,72.071z"/>
</g>
<g enable-background="new    ">
	<path fill="#363A59" d="M439.521,103.722V84.795c0-0.311,0.067-0.533,0.204-0.67c0.135-0.136,0.358-0.203,0.67-0.203h5.91
		c1.708,0,3.218,0.407,4.527,1.223c1.311,0.815,1.966,2.311,1.966,4.484c0,1.611-0.378,2.863-1.136,3.756
		c-0.757,0.893-1.602,1.49-2.533,1.791s-1.775,0.451-2.533,0.451h-4.514v8.095c0,0.427-0.388,0.641-1.164,0.641h-0.232
		C439.908,104.363,439.521,104.149,439.521,103.722z M446.625,93.415c0.834,0,1.631-0.281,2.388-0.845
		c0.757-0.562,1.136-1.543,1.136-2.94c0-1.301-0.389-2.208-1.165-2.723s-1.698-0.771-2.767-0.771h-4.135v7.279H446.625z"/>
	<path fill="#363A59" d="M456.67,104.1c-0.136-0.136-0.203-0.358-0.203-0.669V84.795c0-0.311,0.067-0.533,0.203-0.67
		c0.136-0.136,0.359-0.203,0.67-0.203h10.162c0.213,0,0.364,0.067,0.451,0.203c0.088,0.137,0.131,0.359,0.131,0.67v0.466
		c0,0.311-0.043,0.534-0.131,0.67c-0.087,0.136-0.238,0.204-0.451,0.204h-8.473v6.639h7.6c0.213,0,0.363,0.068,0.451,0.203
		c0.087,0.137,0.131,0.359,0.131,0.67v0.466c0,0.311-0.044,0.534-0.131,0.67c-0.088,0.136-0.238,0.204-0.451,0.204h-7.6v7.104h8.502
		c0.213,0,0.363,0.068,0.451,0.204s0.131,0.359,0.131,0.669v0.467c0,0.311-0.043,0.533-0.131,0.669
		c-0.088,0.137-0.238,0.204-0.451,0.204H457.34C457.03,104.304,456.806,104.237,456.67,104.1z"/>
	<path fill="#363A59" d="M472.365,103.722V84.795c0-0.311,0.067-0.533,0.204-0.67c0.135-0.136,0.359-0.203,0.67-0.203h4.892
		c2.329,0,4.081,0.412,5.255,1.237c1.175,0.825,1.762,2.13,1.762,3.916c0,1.204-0.291,2.218-0.873,3.043s-1.408,1.451-2.475,1.878
		v0.116c0.562,0.194,1.033,0.573,1.412,1.136c0.379,0.563,0.781,1.397,1.208,2.504l2.271,5.736c0.058,0.175,0.087,0.311,0.087,0.408
		c0,0.311-0.407,0.466-1.223,0.466h-0.291c-0.291,0-0.544-0.044-0.758-0.132c-0.213-0.087-0.349-0.198-0.407-0.334l-2.213-5.707
		c-0.427-1.106-0.961-1.859-1.601-2.257c-0.641-0.397-1.555-0.597-2.738-0.597h-2.62v8.386c0,0.427-0.389,0.641-1.165,0.641h-0.232
		C472.752,104.363,472.365,104.149,472.365,103.722z M478.771,93.123c0.679,0,1.306-0.164,1.878-0.494s1.023-0.767,1.354-1.311
		c0.33-0.543,0.496-1.136,0.496-1.776c0-1.146-0.35-1.999-1.049-2.562c-0.699-0.562-1.66-0.844-2.883-0.844h-3.64v6.987H478.771z"/>
	<path fill="#363A59" d="M494.639,103.868c0-0.097,0.029-0.233,0.088-0.408l6.9-19.13c0.117-0.311,0.505-0.466,1.165-0.466h0.845
		c0.698,0,1.086,0.155,1.164,0.466l6.9,19.159c0.059,0.136,0.088,0.262,0.088,0.379c0,0.33-0.418,0.495-1.252,0.495h-0.232
		c-0.68,0-1.068-0.155-1.165-0.466l-1.718-4.775h-8.561l-1.66,4.775c-0.098,0.311-0.485,0.466-1.164,0.466h-0.146
		C495.057,104.363,494.639,104.198,494.639,103.868z M506.635,96.909l-3.057-8.678c-0.098-0.31-0.214-0.873-0.35-1.688h-0.059
		c-0.155,0.776-0.301,1.34-0.436,1.688l-3.059,8.678H506.635z"/>
	<path fill="#363A59" d="M522.155,104.1c-0.137-0.136-0.204-0.358-0.204-0.669V84.504c0-0.427,0.388-0.641,1.165-0.641h0.232
		c0.776,0,1.165,0.214,1.165,0.641v17.587h8.007c0.214,0,0.365,0.068,0.451,0.204c0.088,0.136,0.132,0.359,0.132,0.669v0.467
		c0,0.311-0.044,0.533-0.132,0.669c-0.086,0.137-0.237,0.204-0.451,0.204h-9.695C522.514,104.304,522.289,104.237,522.155,104.1z"/>
	<path fill="#363A59" d="M534.412,88.77c-0.174-0.067-0.262-0.18-0.262-0.335c0-0.116,0.088-0.35,0.262-0.699
		c0.66-1.319,0.99-2.805,0.99-4.454c0-0.292,0.098-0.52,0.291-0.685c0.194-0.165,0.485-0.248,0.874-0.248h0.262
		c0.368,0,0.655,0.073,0.859,0.219s0.306,0.345,0.306,0.597c0,1.088-0.175,2.063-0.524,2.927c-0.349,0.864-0.762,1.543-1.237,2.038
		c-0.477,0.495-0.889,0.742-1.237,0.742C534.781,88.872,534.588,88.838,534.412,88.77z"/>
	<path fill="#363A59" d="M542.42,104.1c-0.137-0.136-0.204-0.358-0.204-0.669V84.795c0-0.311,0.067-0.533,0.204-0.67
		c0.135-0.136,0.359-0.203,0.67-0.203h10.162c0.213,0,0.363,0.067,0.451,0.203c0.087,0.137,0.131,0.359,0.131,0.67v0.466
		c0,0.311-0.044,0.534-0.131,0.67c-0.088,0.136-0.238,0.204-0.451,0.204h-8.474v6.639h7.6c0.214,0,0.364,0.068,0.452,0.203
		c0.086,0.137,0.131,0.359,0.131,0.67v0.466c0,0.311-0.045,0.534-0.131,0.67c-0.088,0.136-0.238,0.204-0.452,0.204h-7.6v7.104h8.503
		c0.213,0,0.363,0.068,0.451,0.204c0.087,0.136,0.131,0.359,0.131,0.669v0.467c0,0.311-0.044,0.533-0.131,0.669
		c-0.088,0.137-0.238,0.204-0.451,0.204H543.09C542.78,104.304,542.555,104.237,542.42,104.1z"/>
	<path fill="#363A59" d="M559.235,101.96c-1.523-1.679-2.285-4.295-2.285-7.848c0-6.91,3.145-10.365,9.434-10.365
		c0.951,0,1.869,0.102,2.752,0.306c0.883,0.203,1.587,0.451,2.111,0.742c0.466,0.272,0.699,0.524,0.699,0.757
		c0,0.272-0.122,0.622-0.364,1.049c-0.243,0.427-0.452,0.641-0.626,0.641c-0.059,0-0.307-0.121-0.742-0.364
		c-0.438-0.242-0.972-0.456-1.602-0.641c-0.631-0.185-1.354-0.276-2.17-0.276c-2.349,0-4.076,0.65-5.183,1.95
		c-1.106,1.301-1.659,3.378-1.659,6.231c0,2.795,0.547,4.849,1.645,6.158c1.096,1.311,2.79,1.966,5.081,1.966
		c0.95,0,1.767-0.111,2.446-0.335c0.679-0.223,1.349-0.51,2.009-0.859c0.271-0.175,0.456-0.262,0.554-0.262
		c0.174,0,0.387,0.214,0.641,0.641c0.252,0.427,0.378,0.738,0.378,0.932c0,0.291-0.312,0.611-0.932,0.961
		c-0.583,0.33-1.32,0.602-2.214,0.815c-0.893,0.213-1.854,0.32-2.882,0.32C563.122,104.479,560.759,103.639,559.235,101.96z"/>
	<path fill="#363A59" d="M577.274,101.815c-1.534-1.776-2.301-4.363-2.301-7.76c0-3.397,0.762-5.965,2.285-7.702
		c1.524-1.737,3.752-2.605,6.684-2.605c2.93,0,5.163,0.868,6.697,2.605c1.533,1.737,2.3,4.305,2.3,7.702
		c0,3.396-0.767,5.983-2.3,7.76c-1.534,1.775-3.768,2.664-6.697,2.664C581.03,104.479,578.807,103.59,577.274,101.815z
		 M588.658,100.169c1.086-1.397,1.631-3.436,1.631-6.114c0-2.659-0.545-4.674-1.631-6.042c-1.088-1.369-2.66-2.053-4.717-2.053
		c-2.059,0-3.625,0.684-4.703,2.053c-1.077,1.368-1.615,3.383-1.615,6.042c0,2.679,0.538,4.717,1.615,6.114
		c1.078,1.397,2.645,2.097,4.703,2.097C585.998,102.266,587.571,101.567,588.658,100.169z"/>
	<path fill="#363A59" d="M597.218,103.722V84.504c0-0.427,0.388-0.641,1.165-0.641h0.611c0.311,0,0.558,0.039,0.742,0.116
		c0.185,0.078,0.345,0.224,0.48,0.437l9.143,13.802c0.33,0.485,0.65,1.068,0.961,1.747l0.117-0.028
		c-0.039-0.446-0.059-1.106-0.059-1.98V84.504c0-0.427,0.389-0.641,1.164-0.641h0.205c0.775,0,1.164,0.214,1.164,0.641v19.218
		c0,0.427-0.389,0.641-1.164,0.641h-0.583c-0.505,0-0.845-0.136-1.019-0.408l-9.377-14.151c-0.33-0.484-0.65-1.067-0.961-1.747
		l-0.115,0.029c0.038,0.447,0.058,1.106,0.058,1.98v13.656c0,0.427-0.389,0.641-1.165,0.641h-0.203
		C597.606,104.363,597.218,104.149,597.218,103.722z"/>
	<path fill="#363A59" d="M619.492,101.815c-1.533-1.776-2.3-4.363-2.3-7.76c0-3.397,0.762-5.965,2.286-7.702
		c1.523-1.737,3.751-2.605,6.682-2.605c2.932,0,5.164,0.868,6.697,2.605s2.301,4.305,2.301,7.702c0,3.396-0.768,5.983-2.301,7.76
		c-1.533,1.775-3.766,2.664-6.697,2.664C623.249,104.479,621.026,103.59,619.492,101.815z M630.878,100.169
		c1.087-1.397,1.63-3.436,1.63-6.114c0-2.659-0.543-4.674-1.63-6.042c-1.087-1.369-2.66-2.053-4.718-2.053
		c-2.057,0-3.625,0.684-4.702,2.053c-1.077,1.368-1.616,3.383-1.616,6.042c0,2.679,0.539,4.717,1.616,6.114s2.646,2.097,4.702,2.097
		C628.218,102.266,629.791,101.567,630.878,100.169z"/>
	<path fill="#363A59" d="M647.911,98.248l-5.183-9.026c-0.175-0.291-0.408-0.728-0.699-1.311l-0.116,0.029
		c0.038,0.35,0.058,0.884,0.058,1.602v14.181c0,0.427-0.389,0.641-1.164,0.641h-0.204c-0.776,0-1.165-0.214-1.165-0.641V84.504
		c0-0.427,0.389-0.641,1.165-0.641h1.048c0.621,0,1.029,0.175,1.224,0.524l5.503,9.55c0.35,0.603,0.602,1.214,0.758,1.835
		c0.154-0.485,0.455-1.126,0.902-1.922l5.357-9.463c0.193-0.35,0.602-0.524,1.223-0.524h0.961c0.776,0,1.165,0.214,1.165,0.641
		v19.218c0,0.427-0.389,0.641-1.165,0.641h-0.203c-0.777,0-1.166-0.214-1.166-0.641V89.716c0-0.718,0.02-1.252,0.059-1.602
		l-0.116-0.029c-0.291,0.583-0.524,1.02-0.698,1.311l-5.096,8.852c-0.137,0.253-0.35,0.379-0.641,0.379h-1.165
		C648.261,98.626,648.047,98.5,647.911,98.248z"/>
	<path fill="#363A59" d="M664.188,103.722V84.504c0-0.427,0.389-0.641,1.165-0.641h0.233c0.775,0,1.164,0.214,1.164,0.641v19.218
		c0,0.427-0.389,0.641-1.164,0.641h-0.233C664.576,104.363,664.188,104.149,664.188,103.722z"/>
	<path fill="#363A59" d="M669.953,103.868c0-0.097,0.028-0.233,0.086-0.408l6.901-19.13c0.116-0.311,0.505-0.466,1.165-0.466h0.844
		c0.699,0,1.088,0.155,1.165,0.466l6.901,19.159c0.059,0.136,0.087,0.262,0.087,0.379c0,0.33-0.417,0.495-1.252,0.495h-0.233
		c-0.68,0-1.067-0.155-1.164-0.466l-1.719-4.775h-8.561l-1.659,4.775c-0.097,0.311-0.485,0.466-1.165,0.466h-0.145
		C670.369,104.363,669.953,104.198,669.953,103.868z M681.949,96.909l-3.058-8.678c-0.098-0.31-0.214-0.873-0.35-1.688h-0.058
		c-0.156,0.776-0.302,1.34-0.438,1.688l-3.057,8.678H681.949z"/>
	<path fill="#363A59" d="M698.313,104.071c-0.99-0.271-1.737-0.601-2.242-0.989c-0.369-0.271-0.553-0.515-0.553-0.729
		c0-0.232,0.131-0.553,0.393-0.961c0.262-0.407,0.471-0.611,0.627-0.611c0.076,0,0.28,0.098,0.611,0.291
		c0.602,0.331,1.246,0.612,1.936,0.845c0.689,0.233,1.51,0.35,2.461,0.35c1.125,0,2.043-0.315,2.752-0.946
		c0.707-0.631,1.062-1.461,1.062-2.489c0-0.719-0.195-1.315-0.582-1.791c-0.389-0.476-0.859-0.854-1.413-1.136
		s-1.354-0.626-2.401-1.034c-1.127-0.446-2.02-0.854-2.68-1.223c-0.66-0.368-1.223-0.917-1.688-1.645
		c-0.466-0.729-0.698-1.685-0.698-2.868c0-1.049,0.266-1.98,0.801-2.796c0.533-0.815,1.29-1.45,2.271-1.907
		c0.979-0.456,2.11-0.684,3.392-0.684c0.66,0,1.398,0.092,2.213,0.276c0.816,0.185,1.446,0.432,1.893,0.742
		c0.389,0.233,0.583,0.485,0.583,0.757c0,0.214-0.122,0.524-0.364,0.933c-0.242,0.407-0.432,0.611-0.567,0.611
		c-0.098,0-0.238-0.049-0.423-0.146c-0.184-0.098-0.305-0.165-0.363-0.204c-0.971-0.505-1.98-0.757-3.028-0.757
		c-1.126,0-2.034,0.291-2.723,0.873s-1.034,1.389-1.034,2.417c0,0.66,0.17,1.193,0.51,1.602c0.34,0.407,0.729,0.713,1.165,0.917
		s1.198,0.52,2.286,0.946c1.164,0.447,2.115,0.879,2.854,1.296c0.737,0.418,1.363,1.019,1.878,1.806
		c0.515,0.786,0.771,1.79,0.771,3.014c0,1.746-0.583,3.125-1.747,4.134c-1.164,1.01-2.737,1.515-4.717,1.515
		C700.38,104.479,699.303,104.343,698.313,104.071z"/>
	<path fill="#363A59" d="M712.959,101.815c-1.534-1.776-2.301-4.363-2.301-7.76c0-3.397,0.762-5.965,2.285-7.702
		c1.524-1.737,3.752-2.605,6.684-2.605c2.93,0,5.163,0.868,6.697,2.605c1.533,1.737,2.3,4.305,2.3,7.702
		c0,3.396-0.767,5.983-2.3,7.76c-1.534,1.775-3.768,2.664-6.697,2.664C716.715,104.479,714.492,103.59,712.959,101.815z
		 M724.344,100.169c1.086-1.397,1.631-3.436,1.631-6.114c0-2.659-0.545-4.674-1.631-6.042c-1.088-1.369-2.66-2.053-4.717-2.053
		c-2.059,0-3.625,0.684-4.703,2.053c-1.077,1.368-1.615,3.383-1.615,6.042c0,2.679,0.538,4.717,1.615,6.114
		c1.078,1.397,2.645,2.097,4.703,2.097C721.684,102.266,723.256,101.567,724.344,100.169z"/>
	<path fill="#363A59" d="M734.229,101.96c-1.523-1.679-2.285-4.295-2.285-7.848c0-6.91,3.145-10.365,9.434-10.365
		c0.951,0,1.868,0.102,2.752,0.306c0.883,0.203,1.586,0.451,2.111,0.742c0.465,0.272,0.698,0.524,0.698,0.757
		c0,0.272-0.122,0.622-0.364,1.049s-0.451,0.641-0.626,0.641c-0.058,0-0.306-0.121-0.742-0.364
		c-0.437-0.242-0.972-0.456-1.602-0.641c-0.631-0.185-1.354-0.276-2.169-0.276c-2.35,0-4.076,0.65-5.184,1.95
		c-1.105,1.301-1.659,3.378-1.659,6.231c0,2.795,0.548,4.849,1.646,6.158c1.096,1.311,2.789,1.966,5.08,1.966
		c0.951,0,1.767-0.111,2.446-0.335c0.679-0.223,1.349-0.51,2.009-0.859c0.271-0.175,0.456-0.262,0.554-0.262
		c0.175,0,0.388,0.214,0.641,0.641c0.252,0.427,0.378,0.738,0.378,0.932c0,0.291-0.311,0.611-0.932,0.961
		c-0.582,0.33-1.32,0.602-2.213,0.815c-0.893,0.213-1.854,0.32-2.883,0.32C738.115,104.479,735.752,103.639,734.229,101.96z"/>
	<path fill="#363A59" d="M751.131,103.722V84.504c0-0.427,0.389-0.641,1.165-0.641h0.233c0.775,0,1.164,0.214,1.164,0.641v19.218
		c0,0.427-0.389,0.641-1.164,0.641h-0.233C751.52,104.363,751.131,104.149,751.131,103.722z"/>
	<path fill="#363A59" d="M756.897,103.868c0-0.097,0.029-0.233,0.087-0.408l6.901-19.13c0.116-0.311,0.504-0.466,1.164-0.466h0.845
		c0.698,0,1.087,0.155,1.165,0.466l6.9,19.159c0.059,0.136,0.088,0.262,0.088,0.379c0,0.33-0.418,0.495-1.252,0.495h-0.233
		c-0.68,0-1.067-0.155-1.165-0.466l-1.718-4.775h-8.561l-1.659,4.775c-0.098,0.311-0.486,0.466-1.165,0.466h-0.146
		C757.314,104.363,756.897,104.198,756.897,103.868z M768.893,96.909l-3.057-8.678c-0.098-0.31-0.215-0.873-0.35-1.688h-0.059
		c-0.156,0.776-0.301,1.34-0.437,1.688l-3.058,8.678H768.893z"/>
	<path fill="#363A59" d="M777.424,104.1c-0.137-0.136-0.204-0.358-0.204-0.669V84.504c0-0.427,0.388-0.641,1.165-0.641h0.232
		c0.776,0,1.165,0.214,1.165,0.641v17.587h8.007c0.214,0,0.365,0.068,0.451,0.204c0.088,0.136,0.132,0.359,0.132,0.669v0.467
		c0,0.311-0.044,0.533-0.132,0.669c-0.086,0.137-0.237,0.204-0.451,0.204h-9.695C777.783,104.304,777.559,104.237,777.424,104.1z"/>
</g>
</svg>
