<svg width="20" height="20" viewBox="0 0 20 20" fill="none" xmlns="http://www.w3.org/2000/svg">
<g clip-path="url(#clip0)">
<path d="M4.1111 1.51074C3.99001 1.16309 3.49782 1.16309 3.37282 1.51074L1.16579 8.33887H6.32204C6.31813 8.33887 4.1111 1.51074 4.1111 1.51074ZM0.0368796 11.7764C-0.064683 12.0889 0.0485984 12.4365 0.314224 12.6357L9.99782 19.8232L1.16188 8.33887L0.0368796 11.7764ZM6.31813 8.33887L10.0017 19.8232L13.6853 8.33887H6.31813ZM19.9666 11.7764L18.8416 8.33887L10.0017 19.8232L19.6853 12.6357C19.9549 12.4365 20.0642 12.0889 19.9666 11.7764ZM16.6306 1.51074C16.5096 1.16309 16.0174 1.16309 15.8924 1.51074L13.6814 8.33887H18.8377L16.6306 1.51074Z" fill="#2D4448"/>
</g>
<defs>
<clipPath id="clip0">
<rect width="20" height="20" fill="white"/>
</clipPath>
</defs>
</svg>
